<svg width="62" height="61" viewBox="0 0 62 61" fill="none" xmlns="http://www.w3.org/2000/svg">
<path fill-rule="evenodd" clip-rule="evenodd" d="M0 29.925C0 13.4982 13.8785 0.181641 30.9984 0.181641C48.1184 0.181641 61.9968 13.4982 61.9968 29.925C61.9968 38.2526 58.4247 45.7868 52.6808 51.1815C47.095 56.4278 39.4371 59.6683 30.9984 59.6683C22.5598 59.6683 14.9018 56.4278 9.31605 51.1815C3.57214 45.7868 0 38.2526 0 29.925ZM21.5641 37.6841C17.1583 37.6841 13.2146 39.8811 11.0892 43.2298C11.9599 44.4269 12.9452 45.542 14.0299 46.5608C18.4073 50.6722 24.3922 53.2024 30.9984 53.2024C37.6046 53.2024 43.5895 50.6722 47.9669 46.5608C49.0516 45.542 50.0369 44.4269 50.9076 43.2299C48.7822 39.8811 44.8384 37.6841 40.4327 37.6841H21.5641ZM21.5641 24.7522C21.5641 19.7528 25.788 15.6999 30.9984 15.6999C36.2088 15.6999 40.4327 19.7528 40.4327 24.7522C40.4327 29.7517 36.2088 33.8046 30.9984 33.8046C25.788 33.8046 21.5641 29.7517 21.5641 24.7522Z" fill="black"/>
</svg>
