<svg width="368" height="90" viewBox="0 0 368 90" fill="none" xmlns="http://www.w3.org/2000/svg">
<rect width="368" height="90" rx="12" fill="#FEE500"/>
<g clip-path="url(#clip0_2161_20111)">
<path fill-rule="evenodd" clip-rule="evenodd" d="M46 28.2002C36.0583 28.2002 28 34.4261 28 42.1048C28 46.8802 31.1168 51.0901 35.863 53.5941L33.8661 60.8892C33.6896 61.5338 34.4268 62.0476 34.9929 61.674L43.7467 55.8966C44.4854 55.9679 45.2362 56.0095 46 56.0095C55.9409 56.0095 63.9999 49.7838 63.9999 42.1048C63.9999 34.4261 55.9409 28.2002 46 28.2002" fill="black"/>
</g>
<path d="M134.43 32.93C134.4 42.08 130.23 48.2 122.58 52.22L120.6 50C124.47 48.23 127.71 45.38 129.54 41.69L121.71 42.53L121.23 39.86L130.56 39.17C130.89 37.97 131.13 36.74 131.22 35.42H122.58V32.93H134.43ZM141.66 30.14V40.58H145.8V43.13H141.66V56.87H138.57V30.14H141.66ZM160.387 32.93C160.357 42.08 156.187 48.2 148.537 52.22L146.557 50C150.427 48.23 153.667 45.38 155.497 41.69L147.667 42.53L147.187 39.86L156.517 39.17C156.847 37.97 157.087 36.74 157.177 35.42H148.537V32.93H160.387ZM167.617 30.14V40.58H171.757V43.13H167.617V56.87H164.527V30.14H167.617ZM196.964 53.45H172.814V50.99H183.314V46.43C178.364 45.95 175.214 43.13 175.214 39.14C175.214 34.73 179.084 31.79 184.874 31.79C190.754 31.79 194.594 34.73 194.594 39.14C194.594 43.16 191.384 45.98 186.374 46.46V50.99H196.964V53.45ZM191.504 39.17C191.504 36.32 188.894 34.31 184.874 34.31C180.944 34.31 178.304 36.32 178.304 39.17C178.304 41.99 180.944 43.91 184.874 43.91C188.864 43.91 191.504 41.99 191.504 39.17ZM228.462 46.55H220.212V51.02H230.802V53.48H206.652V51.02H217.152V46.55H209.742V37.91H224.622V34.46H209.652V32H227.682V40.4H212.832V44.06H228.462V46.55ZM256.759 52.97H232.609V50.48H256.759V52.97ZM253.609 33.02C253.609 40.1 253.159 45.11 252.439 48.62L249.409 48.23C250.069 45.56 250.519 39.77 250.519 35.45H235.399V33.02H253.609ZM280.556 49.52H277.496V30.14H280.556V49.52ZM281.186 56.09H262.886V47.69H265.946V53.63H281.186V56.09ZM273.056 38.66C273.056 42.47 270.296 45.2 266.216 45.2C262.136 45.2 259.316 42.47 259.316 38.69C259.316 34.88 262.106 32.12 266.216 32.12C270.296 32.12 273.056 34.85 273.056 38.66ZM269.996 38.66C269.996 36.32 268.556 34.67 266.216 34.67C263.936 34.67 262.406 36.38 262.406 38.66C262.406 40.85 263.936 42.59 266.216 42.59C268.556 42.59 269.996 40.85 269.996 38.66Z" fill="black" fill-opacity="0.85"/>
<defs>
<clipPath id="clip0_2161_20111">
<rect width="35.9999" height="36" fill="white" transform="translate(28 27)"/>
</clipPath>
</defs>
</svg>
