<svg width="336" height="343" viewBox="0 0 336 343" fill="none" xmlns="http://www.w3.org/2000/svg">
<rect y="0.826172" width="336" height="342" rx="10" fill="#F5F5F5"/>
<path d="M155.404 23.3716V34.8262H153.329V25.3907H153.262L150.583 27.1022V25.2006L153.43 23.3716H155.404ZM167.312 21.6434H169.407V32.1802H167.312V21.6434ZM168.808 25.6124H171.344V27.3292H168.808V25.6124ZM158.476 28.1167H159.689C162.855 28.1167 164.43 28.0537 166.178 27.6757L166.383 29.3294C164.603 29.7232 162.933 29.8019 159.689 29.8019H158.476V28.1167ZM158.476 22.7932H164.997V24.4784H160.555V29.0144H158.476V22.7932ZM160.004 34.3064H169.926V35.9759H160.004V34.3064ZM160.004 31.0777H162.099V35.1569H160.004V31.0777ZM178.036 25.4864H180.997V27.1559H178.036V25.4864ZM177.958 29.1247H180.934V30.7942H177.958V29.1247ZM182.982 21.6434H184.982V36.2279H182.982V21.6434ZM179.974 21.9584H181.927V35.5822H179.974V21.9584ZM176.682 23.3602H178.698C178.698 27.5024 177.454 30.8099 173.39 33.2039L172.209 31.7392C175.501 29.7389 176.682 27.3134 176.682 23.7854V23.3602ZM173.044 23.3602H177.391V25.0297H173.044V23.3602Z" fill="#39A7F7"/>
<path d="M122.903 58.4182H125.031V66.4182H122.903V58.4182ZM124.183 61.5862H126.999V63.3142H124.183V61.5862ZM115.239 67.0102H125.031V70.7702H117.383V72.1142H115.271V69.3302H122.935V68.5462H115.239V67.0102ZM115.271 71.5862H125.463V73.1542H115.271V71.5862ZM113.367 59.5222H122.087V61.1222H113.367V59.5222ZM117.735 61.4742C119.927 61.4742 121.367 62.4182 121.367 63.9062C121.367 65.3942 119.927 66.3062 117.735 66.3062C115.527 66.3062 114.087 65.3942 114.087 63.9062C114.087 62.4182 115.527 61.4742 117.735 61.4742ZM117.735 62.9622C116.743 62.9622 116.135 63.2822 116.135 63.9062C116.135 64.4982 116.743 64.8182 117.735 64.8182C118.727 64.8182 119.335 64.4982 119.335 63.9062C119.335 63.2822 118.727 62.9622 117.735 62.9622ZM116.663 58.3222H118.791V60.6582H116.663V58.3222ZM133.964 58.8662C136.22 58.8662 137.916 60.2742 137.916 62.2582C137.916 64.2262 136.22 65.6342 133.964 65.6342C131.708 65.6342 130.012 64.2262 130.012 62.2582C130.012 60.2742 131.708 58.8662 133.964 58.8662ZM133.964 60.5942C132.876 60.5942 132.06 61.2022 132.06 62.2582C132.06 63.3142 132.876 63.9222 133.964 63.9222C135.052 63.9222 135.852 63.3142 135.852 62.2582C135.852 61.2022 135.052 60.5942 133.964 60.5942ZM139.964 58.4342H142.108V65.8422H139.964V58.4342ZM132.22 66.4502H142.108V70.5142H134.332V72.3062H132.252V68.9782H139.996V68.0982H132.22V66.4502ZM132.252 71.4422H142.476V73.0902H132.252V71.4422ZM150.561 59.0102H160.625V64.2582H150.561V59.0102ZM158.529 60.6742H152.641V62.5942H158.529V60.6742ZM148.913 65.6502H162.305V67.3302H148.913V65.6502ZM154.529 63.8742H156.657V66.1302H154.529V63.8742ZM150.401 68.4022H160.689V73.2502H158.561V70.0822H150.401V68.4022ZM162.632 66.3702H176.056V68.0662H162.632V66.3702ZM164.28 58.7222H174.424V62.7382H166.408V64.3382H164.296V61.2342H172.328V60.3382H164.28V58.7222ZM164.296 63.6982H174.712V65.3142H164.296V63.6982ZM168.28 64.4822H170.408V67.2982H168.28V64.4822ZM164.12 68.8982H174.52V73.2022H172.392V70.5782H164.12V68.8982ZM191.293 58.4342H193.421V65.8262H191.293V58.4342ZM192.557 61.2662H195.373V63.0102H192.557V61.2662ZM182.189 59.1222H189.245V65.2822H182.189V59.1222ZM187.149 60.7862H184.285V63.6182H187.149V60.7862ZM183.629 66.4182H193.421V70.4822H185.773V72.2422H183.661V68.9462H191.325V68.0502H183.629V66.4182ZM183.661 71.4262H193.853V73.0902H183.661V71.4262ZM204.98 58.4342H207.092V73.2502H204.98V58.4342ZM206.612 64.2102H209.236V65.9862H206.612V64.2102ZM195.412 60.6262H204.036V62.3222H195.412V60.6262ZM199.748 63.1542C201.908 63.1542 203.508 64.6262 203.508 66.6902C203.508 68.7542 201.908 70.2262 199.748 70.2262C197.588 70.2262 195.988 68.7542 195.988 66.6902C195.988 64.6262 197.588 63.1542 199.748 63.1542ZM199.748 64.8822C198.74 64.8822 198.02 65.5542 198.02 66.6902C198.02 67.8262 198.74 68.4982 199.748 68.4982C200.756 68.4982 201.476 67.8262 201.476 66.6902C201.476 65.5542 200.756 64.8822 199.748 64.8822ZM198.676 58.6742H200.804V61.2662H198.676V58.6742ZM219.403 58.4342H221.547V73.2502H219.403V58.4342ZM215.035 59.9702H217.147C217.147 64.4982 215.611 68.2102 210.347 70.7542L209.243 69.0582C213.499 67.0102 215.035 64.3222 215.035 60.3542V59.9702ZM210.027 59.9702H216.043V61.6502H210.027V59.9702Z" fill="#0F172A"/>
<g clip-path="url(#clip0_1203_9160)">
<rect width="292" height="228" transform="translate(22 94.8262)" fill="white"/>
<path d="M76.1563 107.826V101.972H77.2769L79.7692 106.103H79.1754L81.6259 101.972H82.7382L82.7549 107.826H81.4837L81.4753 103.92H81.7095L79.7525 107.207H79.142L77.1431 103.92H77.4275V107.826H76.1563ZM84.1439 107.826V101.972H85.4988V107.826H84.1439ZM89.6898 107.927C89.2382 107.927 88.8173 107.854 88.427 107.709C88.0423 107.559 87.7077 107.347 87.4234 107.073C87.139 106.8 86.916 106.48 86.7543 106.112C86.5982 105.744 86.5201 105.339 86.5201 104.899C86.5201 104.459 86.5982 104.054 86.7543 103.686C86.916 103.318 87.139 102.998 87.4234 102.725C87.7133 102.451 88.0506 102.242 88.4353 102.097C88.8201 101.947 89.241 101.871 89.6982 101.871C90.2056 101.871 90.6628 101.961 91.0698 102.139C91.4824 102.312 91.8281 102.568 92.1069 102.909L91.2371 103.711C91.0363 103.483 90.8133 103.313 90.568 103.201C90.3227 103.084 90.055 103.026 89.7651 103.026C89.4919 103.026 89.241 103.07 89.0124 103.159C88.7838 103.249 88.5859 103.377 88.4186 103.544C88.2514 103.711 88.1203 103.909 88.0255 104.138C87.9363 104.367 87.8917 104.62 87.8917 104.899C87.8917 105.178 87.9363 105.431 88.0255 105.66C88.1203 105.889 88.2514 106.087 88.4186 106.254C88.5859 106.421 88.7838 106.549 89.0124 106.639C89.241 106.728 89.4919 106.772 89.7651 106.772C90.055 106.772 90.3227 106.717 90.568 106.605C90.8133 106.488 91.0363 106.312 91.2371 106.078L92.1069 106.881C91.8281 107.221 91.4824 107.48 91.0698 107.659C90.6628 107.837 90.2028 107.927 89.6898 107.927ZM100.425 100.818H101.529V108.587H100.425V100.818ZM98.6687 103.544H100.743V104.439H98.6687V103.544ZM95.315 101.428H96.419V103.302H97.9411V101.428H99.0367V106.764H95.315V101.428ZM96.419 104.163V105.869H97.9411V104.163H96.419ZM102.716 104.999H109.724V105.886H102.716V104.999ZM103.561 107.55H109.022V108.437H103.561V107.55ZM103.561 106.271H104.665V107.901H103.561V106.271ZM103.586 103.703H108.98V104.539H103.586V103.703ZM103.586 101.077H108.922V101.922H104.69V104.063H103.586V101.077ZM104.38 102.398H108.746V103.21H104.38V102.398ZM113.922 100.935C115.687 100.935 116.724 101.403 116.724 102.256C116.724 103.109 115.687 103.578 113.922 103.578C112.149 103.578 111.12 103.109 111.12 102.256C111.12 101.403 112.149 100.935 113.922 100.935ZM113.922 101.746C112.801 101.746 112.275 101.913 112.275 102.256C112.275 102.616 112.801 102.766 113.922 102.766C115.043 102.766 115.57 102.616 115.57 102.256C115.57 101.913 115.043 101.746 113.922 101.746ZM110.418 103.937H117.418V104.815H110.418V103.937ZM111.221 105.25H116.573V107.241H112.325V107.927H111.229V106.471H115.478V106.078H111.221V105.25ZM111.229 107.684H116.774V108.52H111.229V107.684ZM121.35 103.235H126.769V104.121H121.35V103.235ZM120.488 104.999H127.497V105.894H120.488V104.999ZM123.399 105.535H124.511V108.571H123.399V105.535ZM121.35 101.169H122.462V103.653H121.35V101.169ZM128.182 106.789H135.191V107.701H128.182V106.789ZM128.968 101.345H134.404V103.929H130.089V105.225H128.985V103.059H133.3V102.231H128.968V101.345ZM128.985 104.79H134.58V105.677H128.985V104.79ZM136.587 101.478H141.496V102.373H136.587V101.478ZM135.876 106.739H142.876V107.642H135.876V106.739ZM138.351 104.079H139.464V107.182H138.351V104.079ZM141.094 101.478H142.207V102.223C142.207 103.193 142.207 104.28 141.897 105.936L140.785 105.811C141.094 104.272 141.094 103.151 141.094 102.223V101.478ZM148.112 101.052C149.292 101.052 150.178 101.788 150.178 102.825C150.178 103.854 149.292 104.59 148.112 104.59C146.933 104.59 146.047 103.854 146.047 102.825C146.047 101.788 146.933 101.052 148.112 101.052ZM148.112 101.955C147.544 101.955 147.117 102.273 147.117 102.825C147.117 103.377 147.544 103.695 148.112 103.695C148.681 103.695 149.099 103.377 149.099 102.825C149.099 102.273 148.681 101.955 148.112 101.955ZM151.249 100.826H152.369V104.698H151.249V100.826ZM147.201 105.016H152.369V107.14H148.305V108.077H147.217V106.337H151.265V105.878H147.201V105.016ZM147.217 107.625H152.562V108.487H147.217V107.625ZM157.821 102.699H159.293V103.603H157.821V102.699ZM158.992 100.826H160.105V105.426H158.992V100.826ZM157.479 105.593C159.118 105.593 160.13 106.154 160.13 107.09C160.13 108.035 159.118 108.579 157.479 108.579C155.839 108.579 154.827 108.035 154.827 107.09C154.827 106.154 155.839 105.593 157.479 105.593ZM157.479 106.438C156.475 106.438 155.94 106.647 155.94 107.09C155.94 107.525 156.475 107.734 157.479 107.734C158.491 107.734 159.026 107.525 159.026 107.09C159.026 106.647 158.491 106.438 157.479 106.438ZM155.413 101.604H156.316V102.089C156.316 103.569 155.63 104.924 154.15 105.426L153.581 104.548C154.861 104.113 155.413 103.084 155.413 102.089V101.604ZM155.647 101.604H156.542V102.089C156.542 103.001 157.069 103.946 158.29 104.355L157.746 105.234C156.308 104.757 155.647 103.469 155.647 102.089V101.604ZM153.882 101.294H158.047V102.181H153.882V101.294ZM164.821 100.935C166.586 100.935 167.623 101.403 167.623 102.256C167.623 103.109 166.586 103.578 164.821 103.578C163.048 103.578 162.019 103.109 162.019 102.256C162.019 101.403 163.048 100.935 164.821 100.935ZM164.821 101.746C163.7 101.746 163.173 101.913 163.173 102.256C163.173 102.616 163.7 102.766 164.821 102.766C165.942 102.766 166.469 102.616 166.469 102.256C166.469 101.913 165.942 101.746 164.821 101.746ZM161.317 103.937H168.317V104.815H161.317V103.937ZM162.12 105.25H167.472V107.241H163.224V107.927H162.128V106.471H166.377V106.078H162.12V105.25ZM162.128 107.684H167.673V108.52H162.128V107.684ZM173.118 102.047H173.997V102.917C173.997 104.665 173.261 106.446 171.839 107.115L171.212 106.237C172.491 105.635 173.118 104.188 173.118 102.917V102.047ZM173.353 102.047H174.231V102.917C174.231 104.088 174.833 105.459 176.104 106.045L175.494 106.923C174.072 106.262 173.353 104.564 173.353 102.917V102.047ZM171.513 101.57H175.761V102.482H171.513V101.57ZM176.33 100.826H177.451V108.571H176.33V100.826ZM177.2 103.778H178.571V104.698H177.2V103.778ZM182.125 103.427H183.405V104.33H182.125V103.427ZM180.469 101.495H181.322V102.8C181.322 104.556 180.837 106.271 179.599 107.032L178.93 106.195C180.068 105.493 180.469 104.113 180.469 102.8V101.495ZM180.712 101.495H181.548V102.75C181.548 104.012 181.874 105.3 182.928 105.986L182.326 106.856C181.096 106.095 180.712 104.422 180.712 102.75V101.495ZM184.668 100.826H185.73V108.571H184.668V100.826ZM183.095 100.943H184.132V108.219H183.095V100.943ZM192.077 100.826H193.197V108.571H192.077V100.826ZM186.933 101.989H191.516V102.867H186.933V101.989ZM189.233 103.293C190.379 103.293 191.224 104.063 191.224 105.142C191.224 106.22 190.379 106.99 189.233 106.99C188.087 106.99 187.251 106.22 187.251 105.142C187.251 104.063 188.087 103.293 189.233 103.293ZM189.233 104.196C188.698 104.196 188.313 104.548 188.313 105.142C188.313 105.735 188.698 106.087 189.233 106.087C189.769 106.087 190.153 105.735 190.153 105.142C190.153 104.548 189.769 104.196 189.233 104.196ZM188.665 100.935H189.785V102.532H188.665V100.935ZM202.139 100.818H203.26V108.587H202.139V100.818ZM199.086 101.361C200.257 101.361 201.119 102.432 201.119 104.121C201.119 105.827 200.257 106.898 199.086 106.898C197.915 106.898 197.054 105.827 197.054 104.121C197.054 102.432 197.915 101.361 199.086 101.361ZM199.086 102.373C198.509 102.373 198.116 102.984 198.116 104.121C198.116 105.275 198.509 105.894 199.086 105.894C199.663 105.894 200.048 105.275 200.048 104.121C200.048 102.984 199.663 102.373 199.086 102.373ZM206.596 101.361C207.775 101.361 208.628 102.432 208.628 104.121C208.628 105.827 207.775 106.898 206.596 106.898C205.417 106.898 204.564 105.827 204.564 104.121C204.564 102.432 205.417 101.361 206.596 101.361ZM206.596 102.373C206.019 102.373 205.634 102.984 205.634 104.121C205.634 105.275 206.019 105.894 206.596 105.894C207.173 105.894 207.566 105.275 207.566 104.121C207.566 102.984 207.173 102.373 206.596 102.373ZM210.293 102.624H211.656V103.544H210.293V102.624ZM210.293 104.899H211.656V105.811H210.293V104.899ZM209.473 100.826H210.594V108.571H209.473V100.826ZM217.551 100.826H218.672V108.571H217.551V100.826ZM215.268 101.629H216.372C216.372 103.996 215.569 105.936 212.818 107.266L212.241 106.379C214.465 105.309 215.268 103.904 215.268 101.83V101.629ZM212.65 101.629H215.795V102.507H212.65V101.629ZM219.901 101.989H223.606V102.875H219.901V101.989ZM221.766 103.218C222.753 103.218 223.464 103.979 223.464 105.066C223.464 106.145 222.753 106.906 221.766 106.906C220.787 106.906 220.068 106.145 220.068 105.066C220.068 103.979 220.787 103.218 221.766 103.218ZM221.766 104.146C221.348 104.146 221.055 104.481 221.055 105.066C221.055 105.652 221.348 105.978 221.766 105.978C222.184 105.978 222.485 105.652 222.485 105.066C222.485 104.481 222.184 104.146 221.766 104.146ZM225.504 100.826H226.566V108.571H225.504V100.826ZM224.576 103.971H225.855V104.866H224.576V103.971ZM223.882 100.968H224.919V108.244H223.882V100.968ZM221.222 101.035H222.318V102.549H221.222V101.035ZM230.471 101.687H231.433V101.913C231.433 103.277 230.321 104.389 228.355 104.656L227.946 103.787C229.652 103.578 230.471 102.708 230.471 101.913V101.687ZM230.789 101.687H231.751V101.913C231.751 102.708 232.571 103.578 234.277 103.787L233.875 104.656C231.901 104.389 230.789 103.277 230.789 101.913V101.687ZM230.53 105.735H231.634V108.579H230.53V105.735ZM227.611 105.1H234.611V105.986H227.611V105.1ZM228.23 101.219H233.976V102.097H228.23V101.219ZM238.349 103.427H239.629V104.33H238.349V103.427ZM236.693 101.495H237.546V102.8C237.546 104.556 237.061 106.271 235.823 107.032L235.154 106.195C236.292 105.493 236.693 104.113 236.693 102.8V101.495ZM236.936 101.495H237.772V102.75C237.772 104.012 238.098 105.3 239.152 105.986L238.55 106.856C237.32 106.095 236.936 104.422 236.936 102.75V101.495ZM240.891 100.826H241.954V108.571H240.891V100.826ZM239.319 100.943H240.356V108.219H239.319V100.943ZM244.537 104.757H245.641V106.931H244.537V104.757ZM247.347 104.757H248.46V106.931H247.347V104.757ZM242.998 106.772H250.007V107.676H242.998V106.772ZM246.494 101.202C248.159 101.202 249.388 102.022 249.388 103.285C249.388 104.548 248.159 105.359 246.494 105.359C244.822 105.359 243.6 104.548 243.6 103.285C243.6 102.022 244.822 101.202 246.494 101.202ZM246.494 102.072C245.415 102.072 244.696 102.515 244.696 103.285C244.696 104.046 245.415 104.498 246.494 104.498C247.573 104.498 248.292 104.046 248.292 103.285C248.292 102.515 247.573 102.072 246.494 102.072ZM251.445 107.893C251.222 107.893 251.029 107.818 250.868 107.667C250.711 107.511 250.633 107.313 250.633 107.073C250.633 106.834 250.711 106.641 250.868 106.496C251.029 106.346 251.222 106.271 251.445 106.271C251.673 106.271 251.866 106.346 252.022 106.496C252.178 106.641 252.256 106.834 252.256 107.073C252.256 107.313 252.178 107.511 252.022 107.667C251.866 107.818 251.673 107.893 251.445 107.893Z" fill="#938E8E"/>
<path d="M45.3485 158.537C45.3485 154.239 48.8328 150.755 53.131 150.755H282.891C287.189 150.755 290.673 154.239 290.673 158.537V243.797C290.673 248.095 287.189 251.579 282.891 251.579H53.131C48.8328 251.579 45.3485 248.095 45.3485 243.797V158.537Z" fill="white" stroke="#D5D5D5" stroke-width="0.696945"/>
<path d="M50.399 164.49V163.899L52.2285 162.003C52.4238 161.797 52.5848 161.617 52.7116 161.462C52.84 161.306 52.936 161.157 52.9993 161.016C53.0627 160.875 53.0944 160.726 53.0944 160.567C53.0944 160.388 53.0521 160.233 52.9676 160.103C52.8832 159.971 52.7679 159.869 52.6218 159.799C52.4757 159.727 52.3112 159.691 52.1281 159.691C51.9345 159.691 51.7656 159.73 51.6213 159.81C51.477 159.889 51.3661 160.001 51.2886 160.145C51.2112 160.289 51.1725 160.458 51.1725 160.652H50.3937C50.3937 160.323 50.4694 160.035 50.6207 159.788C50.7721 159.542 50.9798 159.351 51.2438 159.216C51.5078 159.078 51.8078 159.01 52.144 159.01C52.4837 159.01 52.7828 159.077 53.0416 159.213C53.302 159.347 53.5053 159.53 53.6514 159.762C53.7975 159.993 53.8705 160.253 53.8705 160.544C53.8705 160.744 53.8327 160.94 53.757 161.132C53.6831 161.324 53.5537 161.538 53.3689 161.774C53.1841 162.008 52.9272 162.292 52.598 162.626L51.5236 163.751V163.791H53.9576V164.49H50.399ZM56.8404 164.564C56.4779 164.564 56.1541 164.502 55.8689 164.377C55.5856 164.252 55.3612 164.078 55.1958 163.857C55.0321 163.633 54.9441 163.374 54.9318 163.081H55.7607C55.7713 163.241 55.8249 163.38 55.9217 163.498C56.0203 163.614 56.1488 163.704 56.3072 163.767C56.4656 163.83 56.6416 163.862 56.8352 163.862C57.0481 163.862 57.2364 163.825 57.4001 163.751C57.5655 163.677 57.6949 163.574 57.7882 163.442C57.8815 163.308 57.9281 163.154 57.9281 162.98C57.9281 162.799 57.8815 162.64 57.7882 162.502C57.6967 162.363 57.562 162.254 57.3843 162.175C57.2083 162.096 56.9953 162.056 56.7454 162.056H56.2887V161.391H56.7454C56.946 161.391 57.122 161.355 57.2734 161.283C57.4265 161.211 57.5462 161.11 57.6324 160.982C57.7187 160.852 57.7618 160.699 57.7618 160.525C57.7618 160.358 57.7239 160.213 57.6483 160.089C57.5743 159.964 57.4687 159.867 57.3315 159.796C57.196 159.726 57.0358 159.691 56.851 159.691C56.675 159.691 56.5104 159.723 56.3573 159.788C56.206 159.852 56.0828 159.943 55.9877 160.063C55.8927 160.181 55.8417 160.323 55.8346 160.488H55.0453C55.0541 160.196 55.1403 159.939 55.304 159.717C55.4694 159.495 55.6877 159.322 55.9587 159.197C56.2297 159.072 56.5307 159.01 56.8616 159.01C57.2083 159.01 57.5075 159.077 57.7591 159.213C58.0126 159.347 58.2079 159.525 58.3452 159.749C58.4842 159.972 58.5529 160.217 58.5511 160.483C58.5529 160.786 58.4684 161.042 58.2977 161.254C58.1287 161.465 57.9035 161.607 57.6219 161.679V161.721C57.9809 161.775 58.259 161.918 58.4561 162.149C58.655 162.379 58.7535 162.665 58.7518 163.007C58.7535 163.304 58.6708 163.571 58.5036 163.806C58.3382 164.042 58.112 164.228 57.8251 164.364C57.5383 164.497 57.21 164.564 56.8404 164.564ZM61.4821 158.595C62.4857 158.595 63.2217 159.205 63.2217 160.089C63.2217 160.966 62.4857 161.576 61.4821 161.576C60.4859 161.576 59.75 160.966 59.75 160.089C59.75 159.205 60.4859 158.595 61.4821 158.595ZM61.4821 159.101C60.8353 159.101 60.3447 159.509 60.3447 160.089C60.3447 160.669 60.8353 161.071 61.4821 161.071C62.1363 161.071 62.6195 160.669 62.6195 160.089C62.6195 159.509 62.1363 159.101 61.4821 159.101ZM64.4855 158.35H65.1099V161.792H64.4855V158.35ZM60.761 162.119H65.1099V163.754H61.378V164.765H60.7759V163.293H64.5004V162.617H60.761V162.119ZM60.7759 164.49H65.333V164.981H60.7759V164.49ZM69.1609 160.959H70.4322V161.472H69.1609V160.959ZM71.5547 158.35H72.1494V165.07H71.5547V158.35ZM70.224 158.491H70.8113V164.736H70.224V158.491ZM67.9492 158.907C68.819 158.907 69.384 159.807 69.384 161.249C69.384 162.691 68.819 163.591 67.9492 163.591C67.0794 163.591 66.5218 162.691 66.5218 161.249C66.5218 159.807 67.0794 158.907 67.9492 158.907ZM67.9492 159.48C67.4214 159.48 67.0868 160.164 67.0868 161.249C67.0868 162.334 67.4214 163.018 67.9492 163.018C68.4844 163.018 68.819 162.334 68.819 161.249C68.819 160.164 68.4844 159.48 67.9492 159.48ZM76.6316 160.625H78.505V161.13H76.6316V160.625ZM75.011 158.93H75.5165V160.126C75.5165 161.636 74.7211 163.078 73.658 163.65L73.264 163.16C74.2527 162.669 75.011 161.375 75.011 160.126V158.93ZM75.1299 158.93H75.628V160.126C75.628 161.353 76.3863 162.572 77.3602 163.033L76.9959 163.531C75.9105 162.981 75.1299 161.598 75.1299 160.126V158.93ZM78.2002 158.342H78.8098V165.078H78.2002V158.342ZM82.2334 164.49V163.899L84.0629 162.003C84.2582 161.797 84.4193 161.617 84.546 161.462C84.6745 161.306 84.7704 161.157 84.8337 161.016C84.8971 160.875 84.9288 160.726 84.9288 160.567C84.9288 160.388 84.8865 160.233 84.8021 160.103C84.7176 159.971 84.6023 159.869 84.4562 159.799C84.3102 159.727 84.1456 159.691 83.9626 159.691C83.769 159.691 83.6 159.73 83.4557 159.81C83.3114 159.889 83.2005 160.001 83.1231 160.145C83.0456 160.289 83.0069 160.458 83.0069 160.652H82.2281C82.2281 160.323 82.3038 160.035 82.4552 159.788C82.6065 159.542 82.8142 159.351 83.0782 159.216C83.3422 159.078 83.6422 159.01 83.9784 159.01C84.3181 159.01 84.6173 159.077 84.876 159.213C85.1365 159.347 85.3397 159.53 85.4858 159.762C85.6319 159.993 85.7049 160.253 85.7049 160.544C85.7049 160.744 85.6671 160.94 85.5914 161.132C85.5175 161.324 85.3881 161.538 85.2033 161.774C85.0185 162.008 84.7616 162.292 84.4325 162.626L83.358 163.751V163.791H85.792V164.49H82.2334ZM86.9747 164.49L89.3348 159.823V159.783H86.6051V159.084H90.1796V159.807L87.8274 164.49H86.9747ZM92.8301 158.595C93.8337 158.595 94.5697 159.205 94.5697 160.089C94.5697 160.966 93.8337 161.576 92.8301 161.576C91.834 161.576 91.098 160.966 91.098 160.089C91.098 159.205 91.834 158.595 92.8301 158.595ZM92.8301 159.101C92.1834 159.101 91.6927 159.509 91.6927 160.089C91.6927 160.669 92.1834 161.071 92.8301 161.071C93.4843 161.071 93.9675 160.669 93.9675 160.089C93.9675 159.509 93.4843 159.101 92.8301 159.101ZM95.8335 158.35H96.458V161.792H95.8335V158.35ZM92.109 162.119H96.458V163.754H92.726V164.765H92.1239V163.293H95.8484V162.617H92.109V162.119ZM92.1239 164.49H96.681V164.981H92.1239V164.49ZM102.357 160.216H103.852V160.714H102.357V160.216ZM102.305 161.903H103.837V162.401H102.305V161.903ZM104.87 158.35H105.465V165.07H104.87V158.35ZM103.525 158.521H104.104V164.728H103.525V158.521ZM102.023 159.197H102.618C102.618 160.959 101.911 162.543 100.105 163.62L99.7481 163.182C101.317 162.23 102.023 160.892 102.023 159.309V159.197ZM100.045 159.197H102.268V159.703H100.045V159.197ZM106.84 158.959H110.772V159.42H106.84V158.959ZM108.81 159.68C109.776 159.68 110.408 160.067 110.408 160.677C110.408 161.294 109.776 161.68 108.81 161.68C107.851 161.68 107.219 161.294 107.219 160.677C107.219 160.067 107.851 159.68 108.81 159.68ZM108.81 160.112C108.207 160.112 107.799 160.327 107.799 160.677C107.799 161.019 108.207 161.249 108.81 161.249C109.427 161.249 109.821 161.019 109.821 160.677C109.821 160.327 109.427 160.112 108.81 160.112ZM108.497 158.305H109.122V159.205H108.497V158.305ZM108.497 161.435H109.122V162.349H108.497V161.435ZM111.471 158.357H112.088V162.855H111.471V158.357ZM107.583 163.167H112.088V165.07H111.471V163.658H107.583V163.167ZM106.706 162.647L106.624 162.148C107.858 162.148 109.523 162.141 110.936 161.948L110.98 162.379C109.516 162.624 107.918 162.647 106.706 162.647ZM116.466 158.461C117.946 158.461 118.83 158.878 118.83 159.628C118.83 160.379 117.946 160.795 116.466 160.795C114.979 160.795 114.102 160.379 114.102 159.628C114.102 158.878 114.979 158.461 116.466 158.461ZM116.466 158.93C115.366 158.93 114.734 159.182 114.734 159.628C114.734 160.074 115.366 160.327 116.466 160.327C117.559 160.327 118.191 160.074 118.191 159.628C118.191 159.182 117.559 158.93 116.466 158.93ZM113.426 161.242H119.499V161.74H113.426V161.242ZM114.162 162.312H118.726V163.829H114.786V164.646H114.176V163.383H118.117V162.788H114.162V162.312ZM114.176 164.513H118.927V164.996H114.176V164.513ZM126.945 158.35H127.562V165.07H126.945V158.35ZM127.25 161.019H128.491V161.539H127.25V161.019ZM123.183 159.346H123.637V160.342C123.637 161.517 123.399 162.981 122.537 163.658L122.143 163.212C122.96 162.587 123.183 161.301 123.183 160.342V159.346ZM123.31 159.346H123.763V160.342C123.763 161.212 123.912 162.572 124.752 163.256L124.41 163.725C123.488 163.003 123.31 161.405 123.31 160.342V159.346ZM125.049 159.346H125.503V160.342C125.503 161.465 125.317 163.018 124.41 163.725L124.061 163.256C124.901 162.595 125.049 161.264 125.049 160.342V159.346ZM125.176 159.346H125.644V160.342C125.644 161.346 125.86 162.602 126.685 163.212L126.291 163.658C125.421 162.989 125.176 161.554 125.176 160.342V159.346ZM122.358 159.026H124.269V159.539H122.358V159.026ZM124.551 159.026H126.41V159.539H124.551V159.026ZM132.882 159.063H133.395V159.465C133.395 160.394 132.621 161.145 131.469 161.398L131.224 160.929C132.205 160.721 132.882 160.126 132.882 159.465V159.063ZM133.008 159.063H133.506V159.465C133.506 160.089 134.197 160.639 135.156 160.825L134.896 161.301C133.774 161.056 133.008 160.357 133.008 159.465V159.063ZM131.439 158.84H134.971V159.338H131.439V158.84ZM132.867 162.104H133.476V164.862H132.867V162.104ZM135.944 158.35H136.562V165.078H135.944V158.35ZM131.097 162.461L131.016 161.94C132.265 161.94 133.967 161.925 135.432 161.71L135.469 162.171C133.96 162.438 132.332 162.461 131.097 162.461ZM134.42 162.974H136.101V163.457H134.42V162.974ZM55.2463 170.026H56.4878V170.546H55.2463V170.026ZM54.7928 167.342H55.4173V174.07H54.7928V167.342ZM50.5108 168.004H51.1278V172.167H50.5108V168.004ZM50.5108 171.847H51.0461C52.0422 171.847 53.0607 171.78 54.1684 171.55L54.2427 172.063C53.0979 172.301 52.0645 172.368 51.0461 172.368H50.5108V171.847ZM57.9071 169.364H62.4717V169.87H57.9071V169.364ZM57.082 170.769H63.1779V171.275H57.082V170.769ZM57.9071 167.595H58.5167V169.617H57.9071V167.595ZM57.8625 173.401H62.5088V173.907H57.8625V173.401ZM57.8625 171.944H58.4721V173.535H57.8625V171.944ZM71.0102 167.35H71.605V174.07H71.0102V167.35ZM69.9472 170.011H71.2332V170.517H69.9472V170.011ZM69.5234 167.491H70.1107V173.736H69.5234V167.491ZM66.1335 168.123H68.6982V172.271H66.1335V168.123ZM68.1184 168.613H66.7133V171.78H68.1184V168.613ZM75.4255 168.011H75.9607V168.294C75.9607 169.498 74.6821 170.383 73.3291 170.613L73.0912 170.123C74.2732 169.952 75.4255 169.178 75.4255 168.294V168.011ZM75.5816 168.011H76.1094V168.294C76.1094 169.178 77.2691 169.952 78.4437 170.123L78.2133 170.613C76.8528 170.383 75.5816 169.498 75.5816 168.294V168.011ZM75.4478 171.505H76.0574V174.07H75.4478V171.505ZM72.7344 171.178H78.808V171.684H72.7344V171.178ZM73.2993 167.766H78.2207V168.264H73.2993V167.766ZM83.3396 170.13H83.9566V171.327H83.3396V170.13ZM86.4247 167.35H87.0418V171.305H86.4247V167.35ZM81.5926 170.338L81.5182 169.877C82.8118 169.877 84.4547 169.87 85.8895 169.706L85.9267 170.108C84.4547 170.323 82.8489 170.338 81.5926 170.338ZM82.5367 171.55H87.0418V172.948H83.1537V173.706H82.5516V172.539H86.4322V171.996H82.5367V171.55ZM82.5516 173.55H87.2648V173.996H82.5516V173.55ZM85.0866 170.546H86.618V170.948H85.0866V170.546ZM83.689 167.476C84.6852 167.476 85.3394 167.863 85.3394 168.487C85.3394 169.112 84.6852 169.498 83.689 169.498C82.6854 169.498 82.0312 169.112 82.0312 168.487C82.0312 167.863 82.6854 167.476 83.689 167.476ZM83.689 167.907C83.0274 167.907 82.6036 168.13 82.6036 168.487C82.6036 168.844 83.0274 169.067 83.689 169.067C84.3358 169.067 84.7595 168.844 84.7595 168.487C84.7595 168.13 84.3358 167.907 83.689 167.907ZM89.8661 170.807H90.4757V172.821H89.8661V170.807ZM92.3491 170.807H92.9661V172.821H92.3491V170.807ZM88.3793 172.702H94.4678V173.215H88.3793V172.702ZM91.4124 167.773C92.8323 167.773 93.8508 168.45 93.8508 169.506C93.8508 170.554 92.8323 171.23 91.4124 171.23C89.9851 171.23 88.9666 170.554 88.9666 169.506C88.9666 168.45 89.9851 167.773 91.4124 167.773ZM91.4124 168.264C90.3345 168.264 89.5613 168.755 89.5613 169.506C89.5613 170.249 90.3345 170.74 91.4124 170.74C92.4904 170.74 93.2561 170.249 93.2561 169.506C93.2561 168.755 92.4904 168.264 91.4124 168.264ZM97.0989 167.595C98.1025 167.595 98.8385 168.205 98.8385 169.089C98.8385 169.966 98.1025 170.576 97.0989 170.576C96.1027 170.576 95.3668 169.966 95.3668 169.089C95.3668 168.205 96.1027 167.595 97.0989 167.595ZM97.0989 168.101C96.4521 168.101 95.9615 168.509 95.9615 169.089C95.9615 169.669 96.4521 170.071 97.0989 170.071C97.7531 170.071 98.2363 169.669 98.2363 169.089C98.2363 168.509 97.7531 168.101 97.0989 168.101ZM100.102 167.35H100.727V170.792H100.102V167.35ZM96.3778 171.119H100.727V172.754H96.9948V173.765H96.3927V172.293H100.117V171.617H96.3778V171.119ZM96.3927 173.49H100.95V173.981H96.3927V173.49ZM105.21 172.751L105.171 173.039C105.144 173.25 105.099 173.47 105.036 173.699C104.974 173.929 104.91 174.143 104.843 174.34C104.778 174.537 104.724 174.694 104.682 174.81H104.122C104.145 174.701 104.177 174.553 104.218 174.367C104.258 174.182 104.298 173.975 104.336 173.746C104.375 173.518 104.404 173.284 104.423 173.047L104.45 172.751H105.21ZM108.819 167.625H113.339V169.914H108.819V167.625ZM112.73 168.123H109.422V169.416H112.73V168.123ZM108.039 170.754H114.112V171.253H108.039V170.754ZM110.775 169.781H111.384V170.94H110.775V169.781ZM108.715 171.944H113.362V174.07H112.745V172.449H108.715V171.944ZM116.372 170.807H116.981V172.821H116.372V170.807ZM118.855 170.807H119.472V172.821H118.855V170.807ZM114.885 172.702H120.974V173.215H114.885V172.702ZM117.918 167.773C119.338 167.773 120.356 168.45 120.356 169.506C120.356 170.554 119.338 171.23 117.918 171.23C116.491 171.23 115.472 170.554 115.472 169.506C115.472 168.45 116.491 167.773 117.918 167.773ZM117.918 168.264C116.84 168.264 116.067 168.755 116.067 169.506C116.067 170.249 116.84 170.74 117.918 170.74C118.996 170.74 119.762 170.249 119.762 169.506C119.762 168.755 118.996 168.264 117.918 168.264ZM123.605 167.595C124.608 167.595 125.344 168.205 125.344 169.089C125.344 169.966 124.608 170.576 123.605 170.576C122.608 170.576 121.872 169.966 121.872 169.089C121.872 168.205 122.608 167.595 123.605 167.595ZM123.605 168.101C122.958 168.101 122.467 168.509 122.467 169.089C122.467 169.669 122.958 170.071 123.605 170.071C124.259 170.071 124.742 169.669 124.742 169.089C124.742 168.509 124.259 168.101 123.605 168.101ZM126.608 167.35H127.232V170.792H126.608V167.35ZM122.884 171.119H127.232V172.754H123.501V173.765H122.898V172.293H126.623V171.617H122.884V171.119ZM122.898 173.49H127.455V173.981H122.898V173.49ZM132.73 168.084V173.49H131.911V168.902H131.88L130.586 169.747V168.965L131.935 168.084H132.73ZM136.019 173.564C135.641 173.564 135.306 173.499 135.016 173.369C134.727 173.239 134.501 173.059 134.337 172.83C134.174 172.601 134.093 172.341 134.094 172.049C134.093 171.82 134.139 171.61 134.234 171.418C134.331 171.224 134.462 171.063 134.628 170.935C134.793 170.805 134.978 170.722 135.182 170.687V170.655C134.913 170.59 134.697 170.445 134.535 170.222C134.373 169.998 134.293 169.742 134.295 169.451C134.293 169.175 134.366 168.928 134.514 168.712C134.664 168.494 134.869 168.322 135.129 168.197C135.39 168.072 135.686 168.01 136.019 168.01C136.348 168.01 136.642 168.073 136.901 168.2C137.161 168.325 137.366 168.496 137.516 168.715C137.665 168.931 137.741 169.177 137.743 169.451C137.741 169.742 137.658 169.998 137.495 170.222C137.331 170.445 137.118 170.59 136.856 170.655V170.687C137.058 170.722 137.24 170.805 137.402 170.935C137.566 171.063 137.696 171.224 137.793 171.418C137.892 171.61 137.942 171.82 137.943 172.049C137.942 172.341 137.859 172.601 137.695 172.83C137.532 173.059 137.305 173.239 137.014 173.369C136.726 173.499 136.394 173.564 136.019 173.564ZM136.019 172.896C136.242 172.896 136.436 172.859 136.6 172.785C136.763 172.71 136.89 172.605 136.98 172.471C137.07 172.336 137.115 172.177 137.117 171.996C137.115 171.808 137.066 171.641 136.969 171.497C136.874 171.353 136.745 171.239 136.581 171.157C136.418 171.074 136.23 171.032 136.019 171.032C135.806 171.032 135.617 171.074 135.451 171.157C135.286 171.239 135.156 171.353 135.061 171.497C134.966 171.641 134.919 171.808 134.921 171.996C134.919 172.177 134.962 172.336 135.05 172.471C135.14 172.605 135.267 172.71 135.433 172.785C135.598 172.859 135.794 172.896 136.019 172.896ZM136.019 170.38C136.198 170.38 136.358 170.344 136.497 170.272C136.636 170.2 136.745 170.1 136.824 169.971C136.905 169.843 136.946 169.692 136.948 169.52C136.946 169.351 136.906 169.203 136.827 169.076C136.749 168.95 136.641 168.852 136.502 168.783C136.363 168.713 136.202 168.678 136.019 168.678C135.832 168.678 135.669 168.713 135.528 168.783C135.389 168.852 135.281 168.95 135.203 169.076C135.126 169.203 135.088 169.351 135.09 169.52C135.088 169.692 135.127 169.843 135.206 169.971C135.285 170.1 135.394 170.2 135.533 170.272C135.674 170.344 135.836 170.38 136.019 170.38ZM140.51 167.93H141.016V169.134C141.016 170.68 140.183 172.115 139.083 172.672L138.704 172.167C139.7 171.691 140.51 170.405 140.51 169.134V167.93ZM140.614 167.93H141.12V169.134C141.12 170.36 141.923 171.595 142.919 172.055L142.547 172.546C141.454 172.011 140.614 170.628 140.614 169.134V167.93ZM143.618 167.342H144.235V174.078H143.618V167.342ZM145.572 171.327H151.668V171.832H145.572V171.327ZM148.293 171.565H148.903V174.07H148.293V171.565ZM146.338 167.617H146.955V168.539H150.278V167.617H150.888V170.524H146.338V167.617ZM146.955 169.037V170.026H150.278V169.037H146.955ZM157.34 167.342H157.949V174.078H157.34V167.342ZM155.942 169.877H157.429V170.39H155.942V169.877ZM152.723 171.951H153.236C154.5 171.951 155.295 171.929 156.24 171.751L156.299 172.256C155.333 172.427 154.515 172.464 153.236 172.464H152.723V171.951ZM152.723 167.959H155.831V168.472H153.333V172.13H152.723V167.959ZM153.177 169.848H155.541V170.346H153.177V169.848ZM161.373 173.49V172.899L163.202 171.003C163.398 170.797 163.559 170.617 163.686 170.462C163.814 170.306 163.91 170.157 163.973 170.016C164.037 169.875 164.068 169.726 164.068 169.567C164.068 169.388 164.026 169.233 163.942 169.103C163.857 168.971 163.742 168.869 163.596 168.799C163.45 168.727 163.285 168.691 163.102 168.691C162.909 168.691 162.74 168.73 162.595 168.81C162.451 168.889 162.34 169.001 162.263 169.145C162.185 169.289 162.146 169.458 162.146 169.652H161.368C161.368 169.323 161.443 169.035 161.595 168.788C161.746 168.542 161.954 168.351 162.218 168.216C162.482 168.078 162.782 168.01 163.118 168.01C163.458 168.01 163.757 168.077 164.016 168.213C164.276 168.347 164.479 168.53 164.625 168.762C164.771 168.993 164.844 169.253 164.844 169.544C164.844 169.744 164.807 169.94 164.731 170.132C164.657 170.324 164.528 170.538 164.343 170.774C164.158 171.008 163.901 171.292 163.572 171.626L162.498 172.751V172.791H164.932V173.49H161.373ZM167.814 173.58C167.397 173.578 167.041 173.468 166.745 173.25C166.45 173.032 166.223 172.714 166.067 172.297C165.91 171.88 165.832 171.377 165.832 170.79C165.832 170.204 165.91 169.703 166.067 169.287C166.225 168.872 166.452 168.555 166.748 168.337C167.045 168.119 167.401 168.01 167.814 168.01C168.228 168.01 168.583 168.12 168.878 168.34C169.174 168.558 169.4 168.875 169.557 169.29C169.715 169.704 169.794 170.204 169.794 170.79C169.794 171.379 169.716 171.883 169.559 172.3C169.403 172.715 169.177 173.033 168.881 173.253C168.585 173.471 168.23 173.58 167.814 173.58ZM167.814 172.875C168.181 172.875 168.467 172.696 168.672 172.339C168.88 171.982 168.984 171.465 168.984 170.79C168.984 170.341 168.936 169.962 168.841 169.652C168.748 169.34 168.613 169.104 168.437 168.944C168.263 168.782 168.056 168.701 167.814 168.701C167.45 168.701 167.164 168.881 166.956 169.24C166.749 169.599 166.644 170.116 166.642 170.79C166.642 171.24 166.689 171.621 166.782 171.933C166.877 172.242 167.012 172.477 167.186 172.638C167.36 172.796 167.57 172.875 167.814 172.875ZM172.352 167.93H172.857V169.134C172.857 170.68 172.025 172.115 170.925 172.672L170.545 172.167C171.542 171.691 172.352 170.405 172.352 169.134V167.93ZM172.456 167.93H172.961V169.134C172.961 170.36 173.764 171.595 174.76 172.055L174.389 172.546C173.296 172.011 172.456 170.628 172.456 169.134V167.93ZM175.459 167.342H176.076V174.078H175.459V167.342ZM182.082 167.35H182.692V174.07H182.082V167.35ZM182.499 170.115H183.696V170.636H182.499V170.115ZM178.864 168.071H179.429C179.429 169.691 179.087 171.26 177.882 172.561L177.384 172.212C178.492 171.059 178.864 169.662 178.864 168.138V168.071ZM177.6 168.071H179.094V168.584H177.6V168.071ZM180.692 168.071H181.265C181.265 169.699 181.034 171.543 179.8 173.007L179.302 172.665C180.44 171.349 180.692 169.684 180.692 168.13V168.071ZM179.644 168.071H180.945V168.584H179.644V168.071ZM186.037 168.309H186.535V169.401C186.535 170.821 185.68 172.249 184.609 172.777L184.253 172.286C185.227 171.825 186.037 170.561 186.037 169.401V168.309ZM186.156 168.309H186.654V169.401C186.654 170.539 187.464 171.699 188.453 172.122L188.104 172.613C187.018 172.107 186.156 170.799 186.156 169.401V168.309ZM184.476 168.034H188.23V168.554H184.476V168.034ZM189.137 167.35H189.754V174.07H189.137V167.35ZM196.122 168.316H198.173V168.822H196.122V168.316ZM196.122 169.862H198.173V170.375H196.122V169.862ZM194.895 167.744C195.884 167.744 196.627 168.413 196.627 169.342C196.627 170.279 195.884 170.94 194.895 170.94C193.899 170.94 193.163 170.279 193.163 169.342C193.163 168.413 193.899 167.744 194.895 167.744ZM194.895 168.272C194.241 168.272 193.758 168.71 193.758 169.342C193.758 169.974 194.241 170.413 194.895 170.413C195.549 170.413 196.04 169.974 196.04 169.342C196.04 168.71 195.549 168.272 194.895 168.272ZM197.973 167.35H198.59V171.327H197.973V167.35ZM196.382 171.483C197.765 171.483 198.62 171.959 198.62 172.769C198.62 173.587 197.765 174.055 196.382 174.055C194.992 174.055 194.137 173.587 194.137 172.769C194.137 171.959 194.992 171.483 196.382 171.483ZM196.382 171.974C195.363 171.974 194.746 172.271 194.746 172.769C194.746 173.275 195.363 173.572 196.382 173.572C197.393 173.572 198.01 173.275 198.01 172.769C198.01 172.271 197.393 171.974 196.382 171.974ZM201.697 167.863C202.671 167.863 203.369 168.777 203.369 170.204C203.369 171.639 202.671 172.554 201.697 172.554C200.715 172.554 200.024 171.639 200.024 170.204C200.024 168.777 200.715 167.863 201.697 167.863ZM201.697 168.42C201.05 168.42 200.611 169.119 200.611 170.204C200.611 171.297 201.05 172.011 201.697 172.011C202.343 172.011 202.782 171.297 202.782 170.204C202.782 169.119 202.343 168.42 201.697 168.42ZM204.826 167.342H205.436V174.078H204.826V167.342ZM203.169 169.907H205.094V170.413H203.169V169.907ZM206.759 168.056H210.729V168.561H206.759V168.056ZM208.744 168.903C209.695 168.903 210.349 169.379 210.349 170.123C210.349 170.859 209.695 171.327 208.744 171.327C207.777 171.327 207.13 170.859 207.13 170.123C207.13 169.379 207.777 168.903 208.744 168.903ZM208.744 169.387C208.127 169.387 207.718 169.669 207.718 170.123C207.718 170.561 208.127 170.851 208.744 170.851C209.346 170.851 209.762 170.561 209.762 170.123C209.762 169.669 209.346 169.387 208.744 169.387ZM211.338 167.35H211.955V171.55H211.338V167.35ZM211.784 169.201H212.951V169.714H211.784V169.201ZM207.591 171.914H211.955V174.07H211.338V172.42H207.591V171.914ZM208.431 167.313H209.048V168.338H208.431V167.313ZM215.486 170.732H216.103V172.226H215.486V170.732ZM218.467 167.35H219.084V172.464H218.467V167.35ZM214.497 173.416H219.247V173.921H214.497V173.416ZM214.497 171.966H215.114V173.557H214.497V171.966ZM213.627 170.963L213.545 170.457C214.787 170.457 216.452 170.442 217.88 170.256L217.924 170.71C216.474 170.94 214.846 170.963 213.627 170.963ZM217.099 171.319H218.623V171.773H217.099V171.319ZM215.731 167.625C216.712 167.625 217.381 168.086 217.381 168.792C217.381 169.506 216.712 169.966 215.731 169.966C214.742 169.966 214.073 169.506 214.073 168.792C214.073 168.086 214.742 167.625 215.731 167.625ZM215.731 168.086C215.099 168.086 214.661 168.361 214.661 168.792C214.661 169.223 215.099 169.498 215.731 169.498C216.356 169.498 216.794 169.223 216.794 168.792C216.794 168.361 216.356 168.086 215.731 168.086ZM223.454 167.461C224.934 167.461 225.819 167.878 225.819 168.628C225.819 169.379 224.934 169.795 223.454 169.795C221.968 169.795 221.09 169.379 221.09 168.628C221.09 167.878 221.968 167.461 223.454 167.461ZM223.454 167.93C222.354 167.93 221.722 168.182 221.722 168.628C221.722 169.074 222.354 169.327 223.454 169.327C224.547 169.327 225.179 169.074 225.179 168.628C225.179 168.182 224.547 167.93 223.454 167.93ZM220.414 170.242H226.488V170.74H220.414V170.242ZM221.15 171.312H225.714V172.829H221.774V173.646H221.165V172.383H225.105V171.788H221.15V171.312ZM221.165 173.513H225.915V173.996H221.165V173.513ZM233.77 167.342H234.394V174.07H233.77V167.342ZM234.223 170.071H235.465V170.584H234.223V170.071ZM232.053 168.071H232.655C232.655 169.981 231.777 171.706 229.607 172.799L229.265 172.323C231.123 171.379 232.053 169.944 232.053 168.167V168.071ZM229.577 168.071H232.372V168.576H229.577V168.071ZM237.851 167.863C238.839 167.863 239.538 168.777 239.538 170.204C239.538 171.639 238.839 172.554 237.851 172.554C236.862 172.554 236.163 171.639 236.163 170.204C236.163 168.777 236.862 167.863 237.851 167.863ZM237.851 168.42C237.196 168.42 236.75 169.119 236.75 170.204C236.75 171.297 237.196 172.011 237.851 172.011C238.497 172.011 238.951 171.297 238.951 170.204C238.951 169.119 238.497 168.42 237.851 168.42ZM241.062 169.037H242.296V169.558H241.062V169.037ZM241.062 171.037H242.296V171.557H241.062V171.037ZM240.609 167.35H241.233V174.07H240.609V167.35ZM247.455 167.35H248.072V174.07H247.455V167.35ZM247.923 170.108H249.172V170.628H247.923V170.108ZM242.868 168.42H246.83V168.926H242.868V168.42ZM244.875 169.483C245.827 169.483 246.511 170.123 246.511 171.03C246.511 171.937 245.827 172.576 244.875 172.576C243.931 172.576 243.24 171.937 243.24 171.03C243.24 170.123 243.931 169.483 244.875 169.483ZM244.875 169.996C244.266 169.996 243.827 170.42 243.827 171.03C243.827 171.632 244.266 172.063 244.875 172.063C245.485 172.063 245.923 171.632 245.923 171.03C245.923 170.42 245.485 169.996 244.875 169.996ZM244.555 167.431H245.173V168.651H244.555V167.431ZM250.383 168.019H254.71V168.532H250.383V168.019ZM249.744 172.62H255.818V173.133H249.744V172.62ZM252.101 170.219H252.718V172.873H252.101V170.219ZM254.479 168.019H255.089V168.688C255.089 169.52 255.089 170.442 254.844 171.803L254.227 171.721C254.479 170.435 254.479 169.491 254.479 168.688V168.019ZM55.1274 176.342H55.7444V183.078H55.1274V176.342ZM52.1983 176.863C53.1945 176.863 53.9082 177.777 53.9082 179.204C53.9082 180.639 53.1945 181.554 52.1983 181.554C51.2096 181.554 50.4959 180.639 50.4959 179.204C50.4959 177.777 51.2096 176.863 52.1983 176.863ZM52.1983 177.42C51.5441 177.42 51.0832 178.119 51.0832 179.204C51.0832 180.297 51.5441 181.011 52.1983 181.011C52.86 181.011 53.3135 180.297 53.3135 179.204C53.3135 178.119 52.86 177.42 52.1983 177.42ZM60.2563 178.245H62.1892V178.751H60.2563V178.245ZM61.9959 176.357H62.6129V181.331H61.9959V176.357ZM58.2937 182.416H62.7765V182.921H58.2937V182.416ZM58.2937 180.847H58.9107V182.676H58.2937V180.847ZM57.4165 176.796H58.0261V177.985H59.8474V176.796H60.4496V180.186H57.4165V176.796ZM58.0261 178.468V179.68H59.8474V178.468H58.0261ZM66.6193 177.011H67.1546V177.294C67.1546 178.498 65.8759 179.383 64.5229 179.613L64.285 179.123C65.467 178.952 66.6193 178.178 66.6193 177.294V177.011ZM66.7754 177.011H67.3032V177.294C67.3032 178.178 68.4629 178.952 69.6375 179.123L69.4071 179.613C68.0466 179.383 66.7754 178.498 66.7754 177.294V177.011ZM66.6416 180.505H67.2512V183.07H66.6416V180.505ZM63.9282 180.178H70.0018V180.684H63.9282V180.178ZM64.4931 176.766H69.4145V177.264H64.4931V176.766ZM73.4878 178.959H74.759V179.472H73.4878V178.959ZM75.8816 176.35H76.4763V183.07H75.8816V176.35ZM74.5509 176.491H75.1382V182.736H74.5509V176.491ZM72.2761 176.907C73.1458 176.907 73.7108 177.807 73.7108 179.249C73.7108 180.691 73.1458 181.591 72.2761 181.591C71.4063 181.591 70.8487 180.691 70.8487 179.249C70.8487 177.807 71.4063 176.907 72.2761 176.907ZM72.2761 177.48C71.7482 177.48 71.4137 178.164 71.4137 179.249C71.4137 180.334 71.7482 181.018 72.2761 181.018C72.8113 181.018 73.1458 180.334 73.1458 179.249C73.1458 178.164 72.8113 177.48 72.2761 177.48ZM78.4235 178.364H82.988V178.87H78.4235V178.364ZM77.5983 179.769H83.6942V180.275H77.5983V179.769ZM78.4235 176.595H79.0331V178.617H78.4235V176.595ZM78.3789 182.401H83.0252V182.907H78.3789V182.401ZM78.3789 180.944H78.9884V182.535H78.3789V180.944ZM86.6342 182.49V177.084H88.5613C88.9802 177.084 89.3278 177.156 89.6041 177.3C89.8822 177.444 90.0899 177.644 90.2271 177.899C90.3644 178.153 90.4331 178.446 90.4331 178.778C90.4331 179.109 90.3635 179.401 90.2245 179.652C90.0872 179.902 89.8796 180.097 89.6015 180.236C89.3252 180.375 88.9776 180.444 88.5587 180.444H87.0988V179.742H88.4848C88.7488 179.742 88.9635 179.704 89.1289 179.629C89.2961 179.553 89.4184 179.443 89.4959 179.299C89.5733 179.154 89.612 178.981 89.612 178.778C89.612 178.574 89.5724 178.397 89.4932 178.248C89.4158 178.098 89.2935 177.984 89.1263 177.905C88.9609 177.824 88.7435 177.783 88.4742 177.783H87.4499V182.49H86.6342ZM89.3032 180.051L90.639 182.49H89.7097L88.4003 180.051H89.3032ZM93.0591 182.572C92.6596 182.572 92.3156 182.487 92.0269 182.316C91.7401 182.144 91.5183 181.902 91.3617 181.59C91.2068 181.277 91.1293 180.91 91.1293 180.489C91.1293 180.074 91.2068 179.708 91.3617 179.391C91.5183 179.074 91.7365 178.827 92.0164 178.649C92.298 178.471 92.6271 178.382 93.0037 178.382C93.2325 178.382 93.4543 178.42 93.669 178.496C93.8837 178.572 94.0764 178.69 94.2471 178.852C94.4178 179.014 94.5525 179.225 94.651 179.483C94.7496 179.74 94.7989 180.053 94.7989 180.421V180.7H91.5755V180.109H94.0254C94.0254 179.901 93.9831 179.717 93.8986 179.557C93.8142 179.395 93.6954 179.268 93.5423 179.174C93.3909 179.081 93.2131 179.035 93.009 179.035C92.7872 179.035 92.5936 179.089 92.4282 179.198C92.2645 179.306 92.1378 179.446 92.048 179.621C91.96 179.793 91.916 179.981 91.916 180.183V180.645C91.916 180.916 91.9636 181.147 92.0586 181.337C92.1554 181.527 92.29 181.672 92.4625 181.772C92.635 181.871 92.8365 181.92 93.0671 181.92C93.2167 181.92 93.3531 181.899 93.4763 181.857C93.5995 181.813 93.7059 181.748 93.7957 181.661C93.8854 181.575 93.9541 181.469 94.0016 181.342L94.7487 181.476C94.6889 181.696 94.5815 181.889 94.4266 182.055C94.2735 182.218 94.0808 182.346 93.8485 182.437C93.6179 182.527 93.3548 182.572 93.0591 182.572ZM96.8547 182.58C96.5978 182.58 96.3655 182.532 96.1578 182.437C95.9501 182.341 95.7855 182.201 95.6641 182.018C95.5444 181.835 95.4846 181.61 95.4846 181.344C95.4846 181.116 95.5286 180.927 95.6166 180.78C95.7046 180.632 95.8234 180.515 95.973 180.428C96.1226 180.342 96.2898 180.277 96.4746 180.233C96.6594 180.189 96.8477 180.156 97.0395 180.133C97.2824 180.105 97.4795 180.082 97.6309 180.064C97.7822 180.045 97.8922 180.014 97.9609 179.972C98.0295 179.929 98.0638 179.861 98.0638 179.766V179.747C98.0638 179.517 97.9987 179.338 97.8685 179.211C97.74 179.085 97.5481 179.021 97.293 179.021C97.0272 179.021 96.8178 179.08 96.6646 179.198C96.5133 179.314 96.4086 179.444 96.3505 179.586L95.6087 179.417C95.6967 179.171 95.8251 178.972 95.9941 178.821C96.1648 178.668 96.3611 178.557 96.5828 178.488C96.8046 178.418 97.0378 178.382 97.2824 178.382C97.4443 178.382 97.6159 178.402 97.7972 178.441C97.9802 178.478 98.1509 178.546 98.3093 178.646C98.4695 178.747 98.6006 178.89 98.7027 179.077C98.8048 179.262 98.8558 179.502 98.8558 179.797V182.49H98.0849V181.936H98.0533C98.0022 182.038 97.9257 182.138 97.8236 182.237C97.7215 182.335 97.5904 182.417 97.4302 182.482C97.2701 182.547 97.0782 182.58 96.8547 182.58ZM97.0263 181.946C97.2446 181.946 97.4311 181.903 97.586 181.817C97.7426 181.731 97.8614 181.618 97.9424 181.479C98.0251 181.338 98.0665 181.188 98.0665 181.028V180.505C98.0383 180.533 97.9837 180.56 97.9028 180.584C97.8236 180.607 97.7329 180.627 97.6309 180.645C97.5288 180.661 97.4294 180.676 97.3326 180.69C97.2358 180.702 97.1548 180.713 97.0897 180.721C96.9366 180.741 96.7966 180.773 96.6699 180.819C96.545 180.865 96.4447 180.931 96.369 181.017C96.2951 181.102 96.2581 181.214 96.2581 181.355C96.2581 181.55 96.3303 181.698 96.4746 181.799C96.6189 181.897 96.8028 181.946 97.0263 181.946ZM100.697 177.084V182.49H99.9072V177.084H100.697ZM101.822 177.084H102.812L104.533 181.286H104.596L106.318 177.084H107.308V182.49H106.531V178.578H106.481L104.887 182.482H104.243L102.648 178.575H102.598V182.49H101.822V177.084ZM108.929 184.011C108.811 184.011 108.704 184.001 108.607 183.982C108.51 183.964 108.438 183.945 108.391 183.924L108.581 183.277C108.725 183.316 108.853 183.332 108.966 183.327C109.079 183.322 109.178 183.28 109.264 183.2C109.352 183.121 109.43 182.992 109.497 182.812L109.594 182.543L108.111 178.435H108.956L109.983 181.582H110.025L111.052 178.435H111.899L110.228 183.031C110.151 183.243 110.052 183.421 109.932 183.567C109.813 183.715 109.67 183.826 109.505 183.9C109.339 183.974 109.147 184.011 108.929 184.011ZM115.653 178.504C115.625 178.254 115.509 178.06 115.305 177.923C115.1 177.784 114.844 177.715 114.534 177.715C114.312 177.715 114.12 177.75 113.958 177.82C113.796 177.889 113.671 177.984 113.581 178.105C113.493 178.225 113.449 178.361 113.449 178.514C113.449 178.643 113.479 178.754 113.539 178.847C113.6 178.94 113.68 179.019 113.779 179.082C113.879 179.144 113.986 179.196 114.101 179.238C114.215 179.278 114.325 179.312 114.431 179.338L114.959 179.475C115.131 179.518 115.308 179.575 115.489 179.647C115.671 179.719 115.839 179.814 115.994 179.932C116.149 180.05 116.273 180.196 116.369 180.37C116.465 180.545 116.514 180.753 116.514 180.996C116.514 181.302 116.435 181.574 116.276 181.812C116.119 182.049 115.892 182.237 115.592 182.374C115.295 182.511 114.935 182.58 114.513 182.58C114.108 182.58 113.758 182.516 113.462 182.387C113.166 182.259 112.935 182.077 112.768 181.841C112.6 181.603 112.508 181.322 112.49 180.996H113.309C113.325 181.191 113.388 181.354 113.499 181.484C113.612 181.613 113.755 181.709 113.929 181.772C114.105 181.834 114.298 181.865 114.507 181.865C114.738 181.865 114.943 181.828 115.122 181.756C115.304 181.682 115.446 181.58 115.55 181.45C115.654 181.318 115.706 181.164 115.706 180.988C115.706 180.828 115.66 180.697 115.569 180.595C115.479 180.493 115.357 180.408 115.202 180.341C115.049 180.274 114.875 180.215 114.682 180.164L114.043 179.99C113.61 179.872 113.267 179.699 113.013 179.47C112.761 179.241 112.636 178.939 112.636 178.562C112.636 178.25 112.72 177.979 112.889 177.746C113.058 177.514 113.287 177.334 113.575 177.205C113.864 177.075 114.19 177.01 114.552 177.01C114.918 177.01 115.241 177.074 115.521 177.202C115.803 177.331 116.024 177.508 116.186 177.733C116.348 177.957 116.433 178.214 116.44 178.504H115.653ZM119.476 180.737H120.279L120.844 181.474L121.111 181.801L122.011 182.976H121.177L120.575 182.192L120.369 181.907L119.476 180.737ZM122.185 179.787C122.185 180.364 122.079 180.861 121.868 181.276C121.657 181.689 121.367 182.008 121 182.232C120.634 182.453 120.217 182.564 119.751 182.564C119.283 182.564 118.865 182.453 118.497 182.232C118.131 182.008 117.842 181.689 117.631 181.273C117.42 180.858 117.314 180.362 117.314 179.787C117.314 179.21 117.42 178.714 117.631 178.301C117.842 177.885 118.131 177.567 118.497 177.345C118.865 177.121 119.283 177.01 119.751 177.01C120.217 177.01 120.634 177.121 121 177.345C121.367 177.567 121.657 177.885 121.868 178.301C122.079 178.714 122.185 179.21 122.185 179.787ZM121.377 179.787C121.377 179.347 121.306 178.976 121.163 178.676C121.023 178.373 120.829 178.144 120.583 177.989C120.338 177.832 120.061 177.754 119.751 177.754C119.439 177.754 119.161 177.832 118.917 177.989C118.672 178.144 118.479 178.373 118.336 178.676C118.195 178.976 118.125 179.347 118.125 179.787C118.125 180.227 118.195 180.598 118.336 180.901C118.479 181.202 118.672 181.431 118.917 181.587C119.161 181.742 119.439 181.82 119.751 181.82C120.061 181.82 120.338 181.742 120.583 181.587C120.829 181.431 121.023 181.202 121.163 180.901C121.306 180.598 121.377 180.227 121.377 179.787ZM123.202 182.49V177.084H124.018V181.788H126.468V182.49H123.202ZM131.343 177.084V182.49H130.525V177.902H130.493L129.199 178.747V177.965L130.548 177.084H131.343ZM134.307 177.071H134.813V177.613C134.813 178.848 134.07 179.881 132.94 180.29L132.627 179.799C133.638 179.442 134.307 178.572 134.307 177.613V177.071ZM134.419 177.071H134.925V177.606C134.925 178.483 135.564 179.271 136.553 179.598L136.255 180.082C135.133 179.71 134.419 178.751 134.419 177.606V177.071ZM132.813 176.848H136.404V177.353H132.813V176.848ZM137.251 176.35H137.868V180.401H137.251V176.35ZM137.697 178.052H138.865V178.572H137.697V178.052ZM135.727 180.58C137.095 180.58 137.935 181.033 137.935 181.814C137.935 182.602 137.095 183.055 135.727 183.055C134.36 183.055 133.519 182.602 133.519 181.814C133.519 181.033 134.36 180.58 135.727 180.58ZM135.727 181.078C134.731 181.078 134.122 181.345 134.122 181.814C134.122 182.29 134.731 182.572 135.727 182.572C136.724 182.572 137.333 182.29 137.333 181.814C137.333 181.345 136.724 181.078 135.727 181.078ZM142.217 178.959H143.488V179.472H142.217V178.959ZM144.611 176.35H145.205V183.07H144.611V176.35ZM143.28 176.491H143.867V182.736H143.28V176.491ZM141.005 176.907C141.875 176.907 142.44 177.807 142.44 179.249C142.44 180.691 141.875 181.591 141.005 181.591C140.135 181.591 139.578 180.691 139.578 179.249C139.578 177.807 140.135 176.907 141.005 176.907ZM141.005 177.48C140.477 177.48 140.143 178.164 140.143 179.249C140.143 180.334 140.477 181.018 141.005 181.018C141.54 181.018 141.875 180.334 141.875 179.249C141.875 178.164 141.54 177.48 141.005 177.48ZM149.687 178.625H151.561V179.13H149.687V178.625ZM148.067 176.93H148.572V178.126C148.572 179.636 147.777 181.078 146.714 181.65L146.32 181.16C147.309 180.669 148.067 179.375 148.067 178.126V176.93ZM148.186 176.93H148.684V178.126C148.684 179.353 149.442 180.572 150.416 181.033L150.052 181.531C148.966 180.981 148.186 179.598 148.186 178.126V176.93ZM151.256 176.342H151.866V183.078H151.256V176.342ZM155.176 181.434V180.774L157.512 177.084H158.032V178.055H157.702L156.031 180.7V180.743H159.233V181.434H155.176ZM157.739 182.49V181.234L157.744 180.933V177.084H158.518V182.49H157.739ZM161.655 177.071H162.161V177.613C162.161 178.848 161.417 179.881 160.287 180.29L159.975 179.799C160.986 179.442 161.655 178.572 161.655 177.613V177.071ZM161.767 177.071H162.272V177.606C162.272 178.483 162.912 179.271 163.9 179.598L163.603 180.082C162.481 179.71 161.767 178.751 161.767 177.606V177.071ZM160.161 176.848H163.752V177.353H160.161V176.848ZM164.599 176.35H165.216V180.401H164.599V176.35ZM165.045 178.052H166.212V178.572H165.045V178.052ZM163.075 180.58C164.443 180.58 165.283 181.033 165.283 181.814C165.283 182.602 164.443 183.055 163.075 183.055C161.707 183.055 160.867 182.602 160.867 181.814C160.867 181.033 161.707 180.58 163.075 180.58ZM163.075 181.078C162.079 181.078 161.469 181.345 161.469 181.814C161.469 182.29 162.079 182.572 163.075 182.572C164.071 182.572 164.681 182.29 164.681 181.814C164.681 181.345 164.071 181.078 163.075 181.078ZM171.505 176.35H172.114V183.07H171.505V176.35ZM171.921 179.115H173.118V179.636H171.921V179.115ZM168.286 177.071H168.851C168.851 178.691 168.509 180.26 167.305 181.561L166.807 181.212C167.914 180.059 168.286 178.662 168.286 177.138V177.071ZM167.022 177.071H168.516V177.584H167.022V177.071ZM170.115 177.071H170.687C170.687 178.699 170.457 180.543 169.223 182.007L168.725 181.665C169.862 180.349 170.115 178.684 170.115 177.13V177.071ZM169.067 177.071H170.367V177.584H169.067V177.071ZM175.459 177.309H175.957V178.401C175.957 179.821 175.102 181.249 174.032 181.777L173.675 181.286C174.649 180.825 175.459 179.561 175.459 178.401V177.309ZM175.578 177.309H176.076V178.401C176.076 179.539 176.887 180.699 177.875 181.122L177.526 181.613C176.441 181.107 175.578 179.799 175.578 178.401V177.309ZM173.898 177.034H177.652V177.554H173.898V177.034ZM178.559 176.35H179.176V183.07H178.559V176.35ZM185.499 180.587C186.927 180.587 187.841 181.055 187.841 181.829C187.841 182.594 186.927 183.055 185.499 183.055C184.065 183.055 183.158 182.594 183.158 181.829C183.158 181.055 184.065 180.587 185.499 180.587ZM185.499 181.07C184.444 181.07 183.767 181.36 183.767 181.829C183.767 182.29 184.444 182.579 185.499 182.579C186.555 182.579 187.224 182.29 187.224 181.829C187.224 181.36 186.555 181.07 185.499 181.07ZM183.21 176.684H187.536V177.19H183.21V176.684ZM182.489 179.479H188.555V179.978H182.489V179.479ZM184.979 178.186H185.589V179.621H184.979V178.186ZM187.18 176.684H187.782V177.257C187.782 177.799 187.782 178.342 187.603 179.041L186.994 178.966C187.18 178.275 187.18 177.784 187.18 177.257V176.684ZM189.32 180.327H195.416V180.832H189.32V180.327ZM192.041 180.565H192.651V183.07H192.041V180.565ZM190.086 176.617H190.703V177.539H194.026V176.617H194.635V179.524H190.086V176.617ZM190.703 178.037V179.026H194.026V178.037H190.703ZM200.716 176.35H201.333V183.07H200.716V176.35ZM201.184 179.108H202.433V179.628H201.184V179.108ZM196.129 177.42H200.091V177.926H196.129V177.42ZM198.136 178.483C199.088 178.483 199.772 179.123 199.772 180.03C199.772 180.937 199.088 181.576 198.136 181.576C197.192 181.576 196.501 180.937 196.501 180.03C196.501 179.123 197.192 178.483 198.136 178.483ZM198.136 178.996C197.527 178.996 197.088 179.42 197.088 180.03C197.088 180.632 197.527 181.063 198.136 181.063C198.746 181.063 199.184 180.632 199.184 180.03C199.184 179.42 198.746 178.996 198.136 178.996ZM197.817 176.431H198.434V177.651H197.817V176.431ZM203.644 177.019H207.971V177.532H203.644V177.019ZM203.005 181.62H209.079V182.133H203.005V181.62ZM205.362 179.219H205.979V181.873H205.362V179.219ZM207.741 177.019H208.35V177.688C208.35 178.52 208.35 179.442 208.105 180.803L207.488 180.721C207.741 179.435 207.741 178.491 207.741 177.688V177.019ZM211.03 181.751L210.99 182.039C210.964 182.25 210.919 182.47 210.855 182.699C210.794 182.929 210.73 183.143 210.663 183.34C210.598 183.537 210.544 183.694 210.502 183.81H209.942C209.965 183.701 209.997 183.553 210.037 183.367C210.078 183.182 210.117 182.975 210.156 182.746C210.195 182.518 210.224 182.284 210.243 182.047L210.269 181.751H211.03ZM214.609 179.398H219.263V179.903H214.609V179.398ZM213.866 181.695H219.954V182.208H213.866V181.695ZM216.594 179.71H217.204V181.858H216.594V179.71ZM214.609 176.915H215.226V179.621H214.609V176.915ZM224.265 177.338H225.775V177.851H224.265V177.338ZM224.265 178.721H225.775V179.227H224.265V178.721ZM222.385 176.729H222.883V177.584C222.883 178.9 222.162 180.022 221.039 180.476L220.712 179.985C221.716 179.598 222.385 178.639 222.385 177.584V176.729ZM222.496 176.729H223.002V177.584C223.002 178.565 223.648 179.494 224.622 179.881L224.28 180.364C223.217 179.918 222.496 178.833 222.496 177.584V176.729ZM225.611 176.357H226.228V181.368H225.611V176.357ZM221.909 182.416H226.392V182.921H221.909V182.416ZM221.909 180.862H222.526V182.691H221.909V180.862ZM230.264 178.959H231.535V179.472H230.264V178.959ZM232.658 176.35H233.253V183.07H232.658V176.35ZM231.327 176.491H231.915V182.736H231.327V176.491ZM229.052 176.907C229.922 176.907 230.487 177.807 230.487 179.249C230.487 180.691 229.922 181.591 229.052 181.591C228.183 181.591 227.625 180.691 227.625 179.249C227.625 177.807 228.183 176.907 229.052 176.907ZM229.052 177.48C228.525 177.48 228.19 178.164 228.19 179.249C228.19 180.334 228.525 181.018 229.052 181.018C229.588 181.018 229.922 180.334 229.922 179.249C229.922 178.164 229.588 177.48 229.052 177.48ZM239.933 178.089H241.449V178.602H239.933V178.089ZM241.256 176.35H241.873V180.357H241.256V176.35ZM239.665 180.557C241.048 180.557 241.903 181.026 241.903 181.814C241.903 182.609 241.048 183.063 239.665 183.063C238.275 183.063 237.42 182.609 237.42 181.814C237.42 181.026 238.275 180.557 239.665 180.557ZM239.665 181.041C238.654 181.041 238.037 181.323 238.037 181.814C238.037 182.297 238.654 182.579 239.665 182.579C240.676 182.579 241.293 182.297 241.293 181.814C241.293 181.323 240.676 181.041 239.665 181.041ZM238.059 177.026H238.565V177.569C238.565 178.81 237.807 179.873 236.691 180.29L236.372 179.799C237.368 179.435 238.059 178.535 238.059 177.569V177.026ZM238.178 177.026H238.676V177.569C238.676 178.439 239.331 179.271 240.304 179.613L239.992 180.104C238.899 179.71 238.178 178.699 238.178 177.569V177.026ZM236.558 176.84H240.148V177.346H236.558V176.84ZM248.08 176.342H248.697V183.078H248.08V176.342ZM243.575 180.944H244.132C245.255 180.944 246.259 180.899 247.448 180.706L247.515 181.212C246.296 181.412 245.285 181.457 244.132 181.457H243.575V180.944ZM243.56 176.974H246.667V179.375H244.192V181.137H243.575V178.87H246.043V177.48H243.56V176.974ZM254.621 176.327H255.238V180.037H254.621V176.327ZM254.978 177.941H256.234V178.461H254.978V177.941ZM250.971 180.379H255.238V181.881H251.596V182.698H250.986V181.435H254.636V180.847H250.971V180.379ZM250.986 182.52H255.484V182.996H250.986V182.52ZM250.042 176.952H254.012V177.435H250.042V176.952ZM252.027 177.732C252.993 177.732 253.633 178.156 253.633 178.84C253.633 179.517 252.993 179.933 252.027 179.933C251.045 179.933 250.414 179.517 250.414 178.84C250.414 178.156 251.045 177.732 252.027 177.732ZM252.027 178.186C251.402 178.186 251.001 178.439 251.001 178.84C251.001 179.234 251.402 179.487 252.027 179.487C252.644 179.487 253.045 179.234 253.045 178.84C253.045 178.439 252.644 178.186 252.027 178.186ZM251.715 176.275H252.332V177.286H251.715V176.275ZM55.1571 185.35H55.7741V192.07H55.1571V185.35ZM53.5885 188.041H55.4322V188.554H53.5885V188.041ZM53.0012 186.071H53.6108C53.6108 187.989 52.8154 189.684 50.5851 190.799L50.2432 190.316C52.1983 189.357 53.0012 187.929 53.0012 186.175V186.071ZM50.5331 186.071H53.3283V186.576H50.5331V186.071ZM58.8736 185.863C59.8623 185.863 60.5611 186.777 60.5611 188.204C60.5611 189.639 59.8623 190.554 58.8736 190.554C57.8848 190.554 57.186 189.639 57.186 188.204C57.186 186.777 57.8848 185.863 58.8736 185.863ZM58.8736 186.42C58.2194 186.42 57.7733 187.119 57.7733 188.204C57.7733 189.297 58.2194 190.011 58.8736 190.011C59.5203 190.011 59.9738 189.297 59.9738 188.204C59.9738 187.119 59.5203 186.42 58.8736 186.42ZM62.0851 187.037H63.3191V187.558H62.0851V187.037ZM62.0851 189.037H63.3191V189.557H62.0851V189.037ZM61.6316 185.35H62.2561V192.07H61.6316V185.35Z" fill="black"/>
<g clip-path="url(#clip1_1203_9160)">
<path d="M82.1306 127.183C83.3099 127.183 84.1964 127.919 84.1964 128.956C84.1964 129.984 83.3099 130.72 82.1306 130.72C80.9514 130.72 80.0649 129.984 80.0649 128.956C80.0649 127.919 80.9514 127.183 82.1306 127.183ZM82.1306 128.086C81.5619 128.086 81.1354 128.404 81.1354 128.956C81.1354 129.508 81.5619 129.826 82.1306 129.826C82.6994 129.826 83.1175 129.508 83.1175 128.956C83.1175 128.404 82.6994 128.086 82.1306 128.086ZM85.2669 126.957H86.3876V130.829H85.2669V126.957ZM81.219 131.147H86.3876V133.271H82.323V134.208H81.2358V132.468H85.2836V132.008H81.219V131.147ZM81.2358 133.756H86.5799V134.618H81.2358V133.756ZM91.8398 128.83H93.3118V129.734H91.8398V128.83ZM93.0107 126.957H94.123V131.557H93.0107V126.957ZM91.4969 131.724C93.1362 131.724 94.1481 132.284 94.1481 133.221C94.1481 134.166 93.1362 134.71 91.4969 134.71C89.8577 134.71 88.8458 134.166 88.8458 133.221C88.8458 132.284 89.8577 131.724 91.4969 131.724ZM91.4969 132.569C90.4933 132.569 89.9581 132.778 89.9581 133.221C89.9581 133.656 90.4933 133.865 91.4969 133.865C92.5089 133.865 93.0442 133.656 93.0442 133.221C93.0442 132.778 92.5089 132.569 91.4969 132.569ZM89.4312 127.735H90.3344V128.22C90.3344 129.7 89.6486 131.055 88.1683 131.557L87.5996 130.679C88.8792 130.244 89.4312 129.215 89.4312 128.22V127.735ZM89.6654 127.735H90.5602V128.22C90.5602 129.131 91.0871 130.076 92.3082 130.486L91.7646 131.364C90.3261 130.888 89.6654 129.6 89.6654 128.22V127.735ZM87.9007 127.425H92.0656V128.312H87.9007V127.425ZM97.8273 127.467C99.0484 127.467 99.96 128.262 99.96 129.374C99.96 130.495 99.0484 131.289 97.8273 131.289C96.6146 131.289 95.6863 130.495 95.6863 129.374C95.6863 128.262 96.6146 127.467 97.8273 127.467ZM97.8273 128.42C97.2335 128.42 96.7819 128.772 96.7819 129.374C96.7819 129.984 97.2335 130.336 97.8273 130.336C98.4211 130.336 98.8727 129.984 98.8727 129.374C98.8727 128.772 98.4211 128.42 97.8273 128.42ZM100.688 126.949H101.8V134.718H100.688V126.949ZM95.5023 133.146L95.3685 132.251C96.7317 132.251 98.6302 132.234 100.261 131.992L100.345 132.795C98.6637 133.129 96.8405 133.146 95.5023 133.146ZM108.475 128.663H109.763V129.558H108.475V128.663ZM108.475 131.055H109.763V131.958H108.475V131.055ZM110.992 126.957H112.054V134.701H110.992V126.957ZM109.445 127.074H110.482V134.35H109.445V127.074ZM107.137 127.501C108.165 127.501 108.826 128.563 108.826 130.311C108.826 132.067 108.165 133.129 107.137 133.129C106.116 133.129 105.464 132.067 105.464 130.311C105.464 128.563 106.116 127.501 107.137 127.501ZM107.137 128.546C106.71 128.546 106.459 129.131 106.459 130.311C106.459 131.498 106.71 132.075 107.137 132.075C107.572 132.075 107.823 131.498 107.823 130.311C107.823 129.131 107.572 128.546 107.137 128.546ZM114.789 127.375H115.7V128.061C115.7 129.6 115.031 130.955 113.559 131.465L112.965 130.587C114.262 130.152 114.789 129.115 114.789 128.061V127.375ZM115.014 127.375H115.918V128.17C115.918 129.098 116.436 130.001 117.649 130.378L117.072 131.239C115.675 130.771 115.014 129.566 115.014 128.17V127.375ZM118.075 126.957H119.188V131.532H118.075V126.957ZM118.878 128.747H120.216V129.667H118.878V128.747ZM116.662 131.707C118.268 131.707 119.28 132.268 119.28 133.204C119.28 134.149 118.268 134.701 116.662 134.701C115.048 134.701 114.036 134.149 114.036 133.204C114.036 132.268 115.048 131.707 116.662 131.707ZM116.662 132.569C115.675 132.569 115.14 132.778 115.14 133.204C115.14 133.639 115.675 133.84 116.662 133.84C117.649 133.84 118.176 133.639 118.176 133.204C118.176 132.778 117.649 132.569 116.662 132.569ZM123.161 132.887H130.17V133.798H123.161V132.887ZM126.072 131.164H127.176V133.129H126.072V131.164ZM126.03 127.383H127V127.944C127 129.591 125.804 131.047 123.78 131.415L123.32 130.486C125.085 130.202 126.03 129.014 126.03 127.944V127.383ZM126.247 127.383H127.218V127.944C127.218 129.039 128.163 130.202 129.936 130.486L129.476 131.415C127.443 131.038 126.247 129.616 126.247 127.944V127.383ZM132.394 130.888H133.498V133.062H132.394V130.888ZM135.204 130.888H136.316V133.062H135.204V130.888ZM130.855 132.903H137.863V133.806H130.855V132.903ZM134.351 127.333C136.015 127.333 137.245 128.153 137.245 129.416C137.245 130.679 136.015 131.49 134.351 131.49C132.678 131.49 131.457 130.679 131.457 129.416C131.457 128.153 132.678 127.333 134.351 127.333ZM134.351 128.203C133.272 128.203 132.553 128.646 132.553 129.416C132.553 130.177 133.272 130.628 134.351 130.628C135.43 130.628 136.149 130.177 136.149 129.416C136.149 128.646 135.43 128.203 134.351 128.203ZM142.799 127.551H143.702V128.68C143.702 130.67 143.016 132.468 141.477 133.179L140.817 132.259C142.163 131.674 142.799 130.185 142.799 128.68V127.551ZM143.016 127.551H143.92V128.68C143.92 130.11 144.53 131.532 145.851 132.1L145.199 132.995C143.702 132.309 143.016 130.587 143.016 128.68V127.551ZM146.219 126.949H147.34V134.718H146.219V126.949ZM153.579 126.957H154.699V132.502H153.579V126.957ZM154.381 129.115H155.728V130.026H154.381V129.115ZM151.421 127.534H152.608C152.608 129.642 151.32 131.088 149.012 131.757L148.544 130.871C150.442 130.352 151.421 129.315 151.421 128.086V127.534ZM148.878 127.534H152.023V128.429H148.878V127.534ZM149.69 133.681H154.958V134.568H149.69V133.681ZM149.69 131.941H150.81V134.074H149.69V131.941ZM159.8 127.066C161.565 127.066 162.602 127.534 162.602 128.387C162.602 129.24 161.565 129.708 159.8 129.708C158.027 129.708 156.998 129.24 156.998 128.387C156.998 127.534 158.027 127.066 159.8 127.066ZM159.8 127.877C158.68 127.877 158.153 128.044 158.153 128.387C158.153 128.747 158.68 128.897 159.8 128.897C160.921 128.897 161.448 128.747 161.448 128.387C161.448 128.044 160.921 127.877 159.8 127.877ZM156.296 130.068H163.296V130.946H156.296V130.068ZM157.099 131.381H162.451V133.372H158.203V134.057H157.107V132.602H161.356V132.209H157.099V131.381ZM157.107 133.815H162.652V134.651H157.107V133.815ZM171.343 126.957H172.455V130.821H171.343V126.957ZM172.003 128.437H173.475V129.349H172.003V128.437ZM166.584 127.317H170.272V130.536H166.584V127.317ZM169.177 128.186H167.68V129.667H169.177V128.186ZM167.337 131.13H172.455V133.255H168.457V134.174H167.353V132.452H171.359V131.983H167.337V131.13ZM167.353 133.748H172.681V134.618H167.353V133.748ZM174.043 128.119H177.748V129.006H174.043V128.119ZM175.908 129.349C176.895 129.349 177.606 130.11 177.606 131.197C177.606 132.276 176.895 133.037 175.908 133.037C174.93 133.037 174.211 132.276 174.211 131.197C174.211 130.11 174.93 129.349 175.908 129.349ZM175.908 130.277C175.49 130.277 175.198 130.612 175.198 131.197C175.198 131.783 175.49 132.109 175.908 132.109C176.327 132.109 176.628 131.783 176.628 131.197C176.628 130.612 176.327 130.277 175.908 130.277ZM179.647 126.957H180.709V134.701H179.647V126.957ZM178.718 130.102H179.998V130.996H178.718V130.102ZM178.024 127.099H179.061V134.375H178.024V127.099ZM175.365 127.166H176.46V128.68H175.365V127.166ZM184.614 127.818H185.576V128.044C185.576 129.407 184.463 130.52 182.498 130.787L182.088 129.918C183.794 129.708 184.614 128.839 184.614 128.044V127.818ZM184.932 127.818H185.894V128.044C185.894 128.839 186.713 129.708 188.419 129.918L188.018 130.787C186.044 130.52 184.932 129.407 184.932 128.044V127.818ZM184.673 131.866H185.776V134.71H184.673V131.866ZM181.754 131.231H188.754V132.117H181.754V131.231ZM182.373 127.35H188.118V128.228H182.373V127.35ZM191.329 127.551H192.232V128.68C192.232 130.67 191.547 132.468 190.008 133.179L189.347 132.259C190.693 131.674 191.329 130.185 191.329 128.68V127.551ZM191.547 127.551H192.45V128.68C192.45 130.11 193.06 131.532 194.382 132.1L193.729 132.995C192.232 132.309 191.547 130.587 191.547 128.68V127.551ZM194.75 126.949H195.87V134.718H194.75V126.949ZM200.871 128.17H202.82V129.056H200.871V128.17ZM200.871 129.834H202.853V130.72H200.871V129.834ZM197.45 127.576H201.114V131.364H197.45V127.576ZM200.018 128.454H198.546V130.495H200.018V128.454ZM202.502 126.965H203.614V132.602H202.502V126.965ZM198.487 133.681H203.781V134.568H198.487V133.681ZM198.487 132.067H199.608V134.141H198.487V132.067ZM207.563 131.941H208.19C209.562 131.941 210.456 131.908 211.46 131.724L211.569 132.619C210.532 132.811 209.603 132.853 208.19 132.853H207.563V131.941ZM207.563 127.643H211.067V128.529H208.675V132.284H207.563V127.643ZM212.589 126.957H213.701V134.726H212.589V126.957ZM210.691 129.625H213.057V130.528H210.691V129.625ZM221.455 128.83H222.927V129.734H221.455V128.83ZM222.626 126.957H223.738V131.557H222.626V126.957ZM221.112 131.724C222.752 131.724 223.764 132.284 223.764 133.221C223.764 134.166 222.752 134.71 221.112 134.71C219.473 134.71 218.461 134.166 218.461 133.221C218.461 132.284 219.473 131.724 221.112 131.724ZM221.112 132.569C220.109 132.569 219.574 132.778 219.574 133.221C219.574 133.656 220.109 133.865 221.112 133.865C222.124 133.865 222.66 133.656 222.66 133.221C222.66 132.778 222.124 132.569 221.112 132.569ZM219.047 127.735H219.95V128.22C219.95 129.7 219.264 131.055 217.784 131.557L217.215 130.679C218.495 130.244 219.047 129.215 219.047 128.22V127.735ZM219.281 127.735H220.176V128.22C220.176 129.131 220.703 130.076 221.924 130.486L221.38 131.364C219.942 130.888 219.281 129.6 219.281 128.22V127.735ZM217.516 127.425H221.681V128.312H217.516V127.425ZM226.707 130.495H227.819V131.607H226.707V130.495ZM229.985 126.965H231.098V132.234H229.985V126.965ZM230.704 129.173H232.068V130.085H230.704V129.173ZM224.984 132.084L224.859 131.222C226.247 131.222 228.078 131.214 229.642 131.021L229.726 131.783C228.112 132.059 226.339 132.075 224.984 132.084ZM225.845 132.544H231.098V134.701H229.985V133.397H225.845V132.544ZM225.059 127.526H229.45V128.32H225.059V127.526ZM227.259 128.504C228.396 128.504 229.141 128.947 229.141 129.658C229.141 130.369 228.396 130.812 227.259 130.812C226.113 130.812 225.369 130.369 225.369 129.658C225.369 128.947 226.113 128.504 227.259 128.504ZM227.259 129.232C226.732 129.232 226.422 129.366 226.422 129.658C226.422 129.934 226.732 130.085 227.259 130.085C227.777 130.085 228.087 129.934 228.087 129.658C228.087 129.366 227.777 129.232 227.259 129.232ZM226.707 126.898H227.819V127.885H226.707V126.898ZM232.636 128.119H236.341V129.006H232.636V128.119ZM234.501 129.349C235.488 129.349 236.199 130.11 236.199 131.197C236.199 132.276 235.488 133.037 234.501 133.037C233.522 133.037 232.803 132.276 232.803 131.197C232.803 130.11 233.522 129.349 234.501 129.349ZM234.501 130.277C234.083 130.277 233.79 130.612 233.79 131.197C233.79 131.783 234.083 132.109 234.501 132.109C234.919 132.109 235.22 131.783 235.22 131.197C235.22 130.612 234.919 130.277 234.501 130.277ZM238.239 126.957H239.301V134.701H238.239V126.957ZM237.311 130.102H238.59V130.996H237.311V130.102ZM236.617 127.099H237.654V134.375H236.617V127.099ZM233.957 127.166H235.053V128.68H233.957V127.166ZM241.885 130.888H242.989V133.062H241.885V130.888ZM244.695 130.888H245.807V133.062H244.695V130.888ZM240.346 132.903H247.355V133.806H240.346V132.903ZM243.842 127.333C245.506 127.333 246.736 128.153 246.736 129.416C246.736 130.679 245.506 131.49 243.842 131.49C242.169 131.49 240.948 130.679 240.948 129.416C240.948 128.153 242.169 127.333 243.842 127.333ZM243.842 128.203C242.763 128.203 242.044 128.646 242.044 129.416C242.044 130.177 242.763 130.628 243.842 130.628C244.921 130.628 245.64 130.177 245.64 129.416C245.64 128.646 244.921 128.203 243.842 128.203ZM80.6671 137.609H85.5763V138.504H80.6671V137.609ZM79.9562 142.87H86.9563V143.773H79.9562V142.87ZM82.4317 140.21H83.5441V143.313H82.4317V140.21ZM85.1749 137.609H86.2872V138.354C86.2872 139.324 86.2872 140.411 85.9778 142.067L84.8655 141.941C85.1749 140.403 85.1749 139.282 85.1749 138.354V137.609ZM91.8398 138.83H93.3118V139.734H91.8398V138.83ZM93.0107 136.957H94.123V141.557H93.0107V136.957ZM91.4969 141.724C93.1362 141.724 94.1481 142.284 94.1481 143.221C94.1481 144.166 93.1362 144.71 91.4969 144.71C89.8577 144.71 88.8458 144.166 88.8458 143.221C88.8458 142.284 89.8577 141.724 91.4969 141.724ZM91.4969 142.569C90.4933 142.569 89.9581 142.778 89.9581 143.221C89.9581 143.656 90.4933 143.865 91.4969 143.865C92.5089 143.865 93.0442 143.656 93.0442 143.221C93.0442 142.778 92.5089 142.569 91.4969 142.569ZM89.4312 137.735H90.3344V138.22C90.3344 139.7 89.6486 141.055 88.1683 141.557L87.5996 140.679C88.8792 140.244 89.4312 139.215 89.4312 138.22V137.735ZM89.6654 137.735H90.5602V138.22C90.5602 139.131 91.0871 140.076 92.3082 140.486L91.7646 141.364C90.3261 140.888 89.6654 139.6 89.6654 138.22V137.735ZM87.9007 137.425H92.0656V138.312H87.9007V137.425ZM96.0125 139.324H99.8094V140.21H96.0125V139.324ZM97.3423 139.892H98.4546V141.373H97.3423V139.892ZM96.0125 137.425H99.7593V138.312H97.1248V139.692H96.0125V137.425ZM100.671 136.949H101.792V142.778H100.671V136.949ZM96.5477 143.681H102.001V144.568H96.5477V143.681ZM96.5477 142.368H97.6601V144.016H96.5477V142.368ZM95.5107 141.908L95.3769 141.03C96.8405 141.03 98.6553 141.013 100.211 140.846L100.286 141.64C98.672 141.875 96.9325 141.908 95.5107 141.908ZM107.58 137.183C108.759 137.183 109.646 137.919 109.646 138.956C109.646 139.984 108.759 140.72 107.58 140.72C106.401 140.72 105.514 139.984 105.514 138.956C105.514 137.919 106.401 137.183 107.58 137.183ZM107.58 138.086C107.011 138.086 106.585 138.404 106.585 138.956C106.585 139.508 107.011 139.826 107.58 139.826C108.149 139.826 108.567 139.508 108.567 138.956C108.567 138.404 108.149 138.086 107.58 138.086ZM110.716 136.957H111.837V140.829H110.716V136.957ZM106.668 141.147H111.837V143.271H107.772V144.208H106.685V142.468H110.733V142.008H106.668V141.147ZM106.685 143.756H112.029V144.618H106.685V143.756ZM117.289 138.83H118.761V139.734H117.289V138.83ZM118.46 136.957H119.572V141.557H118.46V136.957ZM116.946 141.724C118.586 141.724 119.597 142.284 119.597 143.221C119.597 144.166 118.586 144.71 116.946 144.71C115.307 144.71 114.295 144.166 114.295 143.221C114.295 142.284 115.307 141.724 116.946 141.724ZM116.946 142.569C115.943 142.569 115.407 142.778 115.407 143.221C115.407 143.656 115.943 143.865 116.946 143.865C117.958 143.865 118.494 143.656 118.494 143.221C118.494 142.778 117.958 142.569 116.946 142.569ZM114.881 137.735H115.784V138.22C115.784 139.7 115.098 141.055 113.618 141.557L113.049 140.679C114.329 140.244 114.881 139.215 114.881 138.22V137.735ZM115.115 137.735H116.01V138.22C116.01 139.131 116.537 140.076 117.758 140.486L117.214 141.364C115.775 140.888 115.115 139.6 115.115 138.22V137.735ZM113.35 137.425H117.515V138.312H113.35V137.425ZM126.095 136.949H127.216V144.718H126.095V136.949ZM123.043 137.492C124.213 137.492 125.075 138.563 125.075 140.252C125.075 141.958 124.213 143.029 123.043 143.029C121.872 143.029 121.01 141.958 121.01 140.252C121.01 138.563 121.872 137.492 123.043 137.492ZM123.043 138.504C122.465 138.504 122.072 139.115 122.072 140.252C122.072 141.406 122.465 142.025 123.043 142.025C123.62 142.025 124.004 141.406 124.004 140.252C124.004 139.115 123.62 138.504 123.043 138.504ZM132.586 141.657H133.422V141.916C133.422 143.087 132.904 144.158 131.691 144.593L131.148 143.781C132.16 143.439 132.586 142.669 132.586 141.916V141.657ZM132.871 141.657H133.665V141.916C133.665 142.669 134.041 143.455 134.986 143.848L134.543 144.668C133.314 144.208 132.871 143.054 132.871 141.916V141.657ZM135.413 141.657H136.207V141.916C136.207 142.987 135.748 144.191 134.543 144.668L134.083 143.848C135.028 143.422 135.413 142.602 135.413 141.916V141.657ZM135.672 141.657H136.509V141.916C136.509 142.719 136.927 143.464 137.947 143.781L137.403 144.593C136.174 144.174 135.672 143.137 135.672 141.916V141.657ZM136.166 136.965H137.286V141.339H136.166V136.965ZM133.071 137.358C134.276 137.358 135.17 138.128 135.17 139.215C135.17 140.294 134.276 141.063 133.071 141.063C131.867 141.063 130.964 140.294 130.964 139.215C130.964 138.128 131.867 137.358 133.071 137.358ZM133.071 138.278C132.486 138.278 132.051 138.621 132.051 139.215C132.051 139.8 132.486 140.143 133.071 140.143C133.657 140.143 134.083 139.8 134.083 139.215C134.083 138.621 133.657 138.278 133.071 138.278ZM144.319 139.884H145.683V140.796H144.319V139.884ZM143.491 136.949H144.612V144.693H143.491V136.949ZM138.774 137.693H139.887V142.502H138.774V137.693ZM138.774 141.883H139.443C140.547 141.883 141.743 141.808 142.99 141.557L143.107 142.468C141.827 142.736 140.581 142.803 139.443 142.803H138.774V141.883ZM147.781 140.888H148.885V143.062H147.781V140.888ZM150.591 140.888H151.703V143.062H150.591V140.888ZM146.242 142.903H153.251V143.806H146.242V142.903ZM149.738 137.333C151.402 137.333 152.632 138.153 152.632 139.416C152.632 140.679 151.402 141.49 149.738 141.49C148.065 141.49 146.844 140.679 146.844 139.416C146.844 138.153 148.065 137.333 149.738 137.333ZM149.738 138.203C148.659 138.203 147.94 138.646 147.94 139.416C147.94 140.177 148.659 140.628 149.738 140.628C150.817 140.628 151.536 140.177 151.536 139.416C151.536 138.646 150.817 138.203 149.738 138.203ZM155.408 141.925C155.408 141.73 155.438 141.557 155.5 141.406C155.567 141.256 155.648 141.122 155.742 141.005C155.843 140.888 155.949 140.779 156.06 140.679C156.172 140.578 156.275 140.483 156.37 140.394C156.47 140.299 156.551 140.202 156.612 140.102C156.679 140.001 156.712 139.89 156.712 139.767C156.712 139.566 156.629 139.405 156.462 139.282C156.3 139.159 156.082 139.098 155.809 139.098C155.547 139.098 155.313 139.154 155.107 139.265C154.9 139.371 154.73 139.522 154.597 139.717L153.585 139.123C153.808 138.783 154.117 138.512 154.513 138.312C154.909 138.105 155.388 138.002 155.951 138.002C156.37 138.002 156.738 138.064 157.055 138.186C157.373 138.303 157.621 138.476 157.8 138.705C157.984 138.933 158.076 139.215 158.076 139.55C158.076 139.767 158.042 139.959 157.975 140.127C157.908 140.294 157.822 140.439 157.716 140.562C157.61 140.684 157.496 140.798 157.373 140.904C157.256 141.01 157.145 141.113 157.039 141.214C156.933 141.314 156.843 141.42 156.771 141.532C156.704 141.643 156.671 141.774 156.671 141.925H155.408ZM156.043 144.024C155.809 144.024 155.617 143.949 155.466 143.798C155.316 143.648 155.24 143.469 155.24 143.263C155.24 143.051 155.316 142.875 155.466 142.736C155.617 142.591 155.809 142.519 156.043 142.519C156.283 142.519 156.475 142.591 156.62 142.736C156.771 142.875 156.846 143.051 156.846 143.263C156.846 143.469 156.771 143.648 156.62 143.798C156.475 143.949 156.283 144.024 156.043 144.024ZM81.8965 147.275H82.8081V147.676C82.8081 149.006 82.0888 150.127 80.5583 150.52L80.0482 149.65C81.3529 149.34 81.8965 148.512 81.8965 147.676V147.275ZM82.139 147.275H83.0506V147.676C83.0506 148.479 83.5859 149.223 84.8655 149.508L84.372 150.369C82.8499 150.01 82.139 148.972 82.139 147.676V147.275ZM81.9383 151.314H83.0506V154.467H81.9383V151.314ZM85.3254 146.957H86.4294V154.701H85.3254V146.957ZM80.1067 151.891L79.9729 150.988C81.3445 150.988 83.2513 150.971 84.8822 150.737L84.9575 151.54C83.2848 151.866 81.4616 151.891 80.1067 151.891ZM88.3607 147.609H93.27V148.504H88.3607V147.609ZM87.6498 152.87H94.6499V153.773H87.6498V152.87ZM90.1253 150.21H91.2377V153.313H90.1253V150.21ZM92.8685 147.609H93.9808V148.354C93.9808 149.324 93.9808 150.411 93.6714 152.067L92.5591 151.941C92.8685 150.403 92.8685 149.282 92.8685 148.354V147.609ZM103.023 146.965H104.143V151.247H103.023V146.965ZM99.5184 147.225H100.438V147.969C100.438 149.399 99.7191 150.687 98.2054 151.147L97.6618 150.277C98.9664 149.884 99.5184 148.914 99.5184 147.969V147.225ZM99.7442 147.225H100.656V147.969C100.656 148.889 101.199 149.784 102.462 150.143L101.927 151.021C100.438 150.578 99.7442 149.374 99.7442 147.969V147.225ZM98.9079 151.599H104.177V152.477H98.9079V151.599ZM98.8326 153.74H104.252V154.618H98.8326V153.74ZM99.8195 151.925H100.907V154.258H99.8195V151.925ZM102.178 151.925H103.274V154.258H102.178V151.925ZM105.397 150.904H112.397V151.791H105.397V150.904ZM106.242 153.681H111.611V154.568H106.242V153.681ZM106.242 152.309H107.354V153.965H106.242V152.309ZM108.901 147.183C110.582 147.183 111.703 147.793 111.703 148.78C111.703 149.767 110.582 150.378 108.901 150.378C107.212 150.378 106.1 149.767 106.1 148.78C106.1 147.793 107.212 147.183 108.901 147.183ZM108.901 148.069C107.856 148.069 107.245 148.312 107.245 148.78C107.245 149.257 107.856 149.491 108.901 149.491C109.947 149.491 110.557 149.257 110.557 148.78C110.557 148.312 109.947 148.069 108.901 148.069ZM117.349 147.551H118.253V148.68C118.253 150.67 117.567 152.468 116.028 153.179L115.367 152.259C116.714 151.674 117.349 150.185 117.349 148.68V147.551ZM117.567 147.551H118.47V148.68C118.47 150.11 119.081 151.532 120.402 152.1L119.75 152.995C118.253 152.309 117.567 150.587 117.567 148.68V147.551ZM120.77 146.949H121.891V154.718H120.77V146.949ZM128.129 146.957H129.25V152.502H128.129V146.957ZM128.932 149.115H130.279V150.026H128.932V149.115ZM125.971 147.534H127.159C127.159 149.642 125.871 151.088 123.563 151.757L123.094 150.871C124.993 150.352 125.971 149.315 125.971 148.086V147.534ZM123.429 147.534H126.574V148.429H123.429V147.534ZM124.24 153.681H129.509V154.568H124.24V153.681ZM124.24 151.941H125.361V154.074H124.24V151.941ZM130.847 150.904H137.847V151.791H130.847V150.904ZM131.691 153.681H137.061V154.568H131.691V153.681ZM131.691 152.309H132.804V153.965H131.691V152.309ZM134.351 147.183C136.032 147.183 137.153 147.793 137.153 148.78C137.153 149.767 136.032 150.378 134.351 150.378C132.661 150.378 131.549 149.767 131.549 148.78C131.549 147.793 132.661 147.183 134.351 147.183ZM134.351 148.069C133.305 148.069 132.695 148.312 132.695 148.78C132.695 149.257 133.305 149.491 134.351 149.491C135.396 149.491 136.007 149.257 136.007 148.78C136.007 148.312 135.396 148.069 134.351 148.069ZM144.463 147.275H146.604V148.153H144.463V147.275ZM140.925 150.478H147.9V151.364H140.925V150.478ZM143.995 149.123H145.09V150.854H143.995V149.123ZM146.153 147.275H147.231V147.76C147.231 148.303 147.231 149.048 146.989 150.001L145.91 149.876C146.153 148.939 146.153 148.287 146.153 147.76V147.275ZM141.67 151.975H147.031V154.668H145.918V152.861H141.67V151.975ZM141.477 147.275H143.326V148.153H141.477V147.275ZM142.799 147.275H143.878V147.609C143.878 148.111 143.878 148.939 143.476 150.01L142.406 149.859C142.799 148.763 142.799 148.069 142.799 147.609V147.275ZM155.955 146.957H157.068V150.821H155.955V146.957ZM156.616 148.437H158.088V149.349H156.616V148.437ZM151.197 147.317H154.885V150.536H151.197V147.317ZM153.789 148.186H152.292V149.667H153.789V148.186ZM151.949 151.13H157.068V153.255H153.07V154.174H151.966V152.452H155.972V151.983H151.949V151.13ZM151.966 153.748H157.294V154.618H151.966V153.748ZM158.656 148.119H162.361V149.006H158.656V148.119ZM160.521 149.349C161.508 149.349 162.219 150.11 162.219 151.197C162.219 152.276 161.508 153.037 160.521 153.037C159.543 153.037 158.823 152.276 158.823 151.197C158.823 150.11 159.543 149.349 160.521 149.349ZM160.521 150.277C160.103 150.277 159.81 150.612 159.81 151.197C159.81 151.783 160.103 152.109 160.521 152.109C160.939 152.109 161.24 151.783 161.24 151.197C161.24 150.612 160.939 150.277 160.521 150.277ZM164.26 146.957H165.322V154.701H164.26V146.957ZM163.331 150.102H164.611V150.996H163.331V150.102ZM162.637 147.099H163.674V154.375H162.637V147.099ZM159.978 147.166H161.073V148.68H159.978V147.166ZM169.227 147.818H170.189V148.044C170.189 149.407 169.076 150.52 167.111 150.787L166.701 149.918C168.407 149.708 169.227 148.839 169.227 148.044V147.818ZM169.545 147.818H170.506V148.044C170.506 148.839 171.326 149.708 173.032 149.918L172.631 150.787C170.657 150.52 169.545 149.407 169.545 148.044V147.818ZM169.285 151.866H170.389V154.71H169.285V151.866ZM166.366 151.231H173.367V152.117H166.366V151.231ZM166.985 147.35H172.731V148.228H166.985V147.35ZM177.104 149.558H178.384V150.461H177.104V149.558ZM175.448 147.626H176.301V148.931C176.301 150.687 175.816 152.401 174.579 153.163L173.91 152.326C175.047 151.624 175.448 150.244 175.448 148.931V147.626ZM175.691 147.626H176.527V148.88C176.527 150.143 176.853 151.431 177.907 152.117L177.305 152.987C176.076 152.226 175.691 150.553 175.691 148.88V147.626ZM179.647 146.957H180.709V154.701H179.647V146.957ZM178.075 147.074H179.112V154.35H178.075V147.074ZM183.293 150.888H184.397V153.062H183.293V150.888ZM186.103 150.888H187.215V153.062H186.103V150.888ZM181.754 152.903H188.762V153.806H181.754V152.903ZM185.25 147.333C186.914 147.333 188.143 148.153 188.143 149.416C188.143 150.679 186.914 151.49 185.25 151.49C183.577 151.49 182.356 150.679 182.356 149.416C182.356 148.153 183.577 147.333 185.25 147.333ZM185.25 148.203C184.171 148.203 183.451 148.646 183.451 149.416C183.451 150.177 184.171 150.628 185.25 150.628C186.328 150.628 187.048 150.177 187.048 149.416C187.048 148.646 186.328 148.203 185.25 148.203Z" fill="black"/>
</g>
<g filter="url(#filter0_d_1203_9160)">
<ellipse cx="163.254" cy="277.599" rx="10.6918" ry="10.4542" fill="#39A7F7"/>
<g clip-path="url(#clip2_1203_9160)">
<path d="M166.153 277.018C166.153 278.621 164.852 279.922 163.249 279.922C161.646 279.922 160.345 278.621 160.345 277.018H159.184C159.184 279.068 160.699 280.752 162.668 281.037V282.825H163.83V281.037C165.799 280.752 167.315 279.068 167.315 277.018H166.153Z" fill="white"/>
<path d="M163.248 278.76C164.212 278.76 164.991 277.982 164.991 277.018V273.533C164.991 272.569 164.212 271.791 163.248 271.791C162.284 271.791 161.506 272.569 161.506 273.533V277.018C161.506 277.982 162.284 278.76 163.248 278.76ZM162.667 273.533C162.667 273.214 162.929 272.953 163.248 272.953C163.568 272.953 163.829 273.214 163.829 273.533V277.018C163.829 277.338 163.568 277.599 163.248 277.599C162.929 277.599 162.667 277.338 162.667 277.018V273.533Z" fill="white"/>
<path d="M163.248 278.76C164.212 278.76 164.991 277.982 164.991 277.018V273.533C164.991 272.569 164.212 271.791 163.248 271.791C162.284 271.791 161.506 272.569 161.506 273.533V277.018C161.506 277.982 162.284 278.76 163.248 278.76Z" fill="white"/>
</g>
</g>
<g filter="url(#filter1_d_1203_9160)">
<rect x="173.936" y="298.738" width="58.0788" height="15.1005" rx="1.85852" fill="#39A7F7" shape-rendering="crispEdges"/>
<path d="M201.369 304.117H202.116V309.296H201.369V304.117ZM201.949 306.029H202.864V306.637H201.949V306.029ZM198.269 307.44H198.704C199.574 307.44 200.26 307.412 201.018 307.278L201.091 307.891C200.31 308.031 199.602 308.053 198.704 308.053H198.269V307.44ZM198.269 304.596H200.678V305.193H199.005V307.735H198.269V304.596ZM205.534 304.217C206.671 304.217 207.402 304.602 207.402 305.226C207.402 305.851 206.671 306.23 205.534 306.23C204.396 306.23 203.666 305.851 203.666 305.226C203.666 304.602 204.396 304.217 205.534 304.217ZM205.534 304.791C204.826 304.791 204.43 304.931 204.43 305.226C204.43 305.516 204.826 305.661 205.534 305.661C206.236 305.661 206.638 305.516 206.638 305.226C206.638 304.931 206.236 304.791 205.534 304.791ZM203.738 307.468H207.307V309.23H203.738V307.468ZM206.582 308.053H204.469V308.644H206.582V308.053ZM203.198 306.525H207.864V307.111H203.198V306.525Z" fill="white"/>
</g>
<g filter="url(#filter2_d_1203_9160)">
<rect x="94.4844" y="298.738" width="58.0788" height="15.1005" rx="1.85852" fill="white" shape-rendering="crispEdges"/>
<rect x="94.6586" y="298.913" width="57.7303" height="14.752" rx="1.68428" stroke="#39A7F7" stroke-width="0.348473" shape-rendering="crispEdges"/>
<path d="M119.95 305.104H120.547V305.165C120.547 305.929 120.089 306.553 119.097 306.754L118.801 306.18C119.599 306.035 119.95 305.611 119.95 305.165V305.104ZM120.1 305.104H120.697V305.165C120.697 305.583 121.043 305.968 121.823 306.107L121.533 306.676C120.558 306.492 120.1 305.895 120.1 305.165V305.104ZM118.941 304.635H121.701V305.204H118.941V304.635ZM119.95 304.133H120.697V305.042H119.95V304.133ZM119.944 307.055H120.686V309.129H119.944V307.055ZM122.202 304.122H122.938V309.285H122.202V304.122ZM118.723 307.574L118.634 306.971C119.571 306.971 120.825 306.966 121.907 306.821L121.957 307.356C120.842 307.557 119.643 307.574 118.723 307.574ZM123.752 308.075H128.424V308.683H123.752V308.075ZM125.692 306.927H126.428V308.237H125.692V306.927ZM125.664 304.407H126.311V304.78C126.311 305.879 125.514 306.849 124.165 307.094L123.858 306.475C125.034 306.286 125.664 305.494 125.664 304.78V304.407ZM125.809 304.407H126.456V304.78C126.456 305.511 127.086 306.286 128.268 306.475L127.962 307.094C126.607 306.843 125.809 305.895 125.809 304.78V304.407Z" fill="#39A7F7"/>
</g>
</g>
<defs>
<filter id="filter0_d_1203_9160" x="49.2545" y="198.273" width="227.999" height="227.524" filterUnits="userSpaceOnUse" color-interpolation-filters="sRGB">
<feFlood flood-opacity="0" result="BackgroundImageFix"/>
<feColorMatrix in="SourceAlpha" type="matrix" values="0 0 0 0 0 0 0 0 0 0 0 0 0 0 0 0 0 0 127 0" result="hardAlpha"/>
<feOffset dy="34.436"/>
<feGaussianBlur stdDeviation="51.654"/>
<feComposite in2="hardAlpha" operator="out"/>
<feColorMatrix type="matrix" values="0 0 0 0 0.439216 0 0 0 0 0.564706 0 0 0 0 0.690196 0 0 0 0.08 0"/>
<feBlend mode="normal" in2="BackgroundImageFix" result="effect1_dropShadow_1203_9160"/>
<feBlend mode="normal" in="SourceGraphic" in2="effect1_dropShadow_1203_9160" result="shape"/>
</filter>
<filter id="filter1_d_1203_9160" x="70.6275" y="229.866" width="264.694" height="221.716" filterUnits="userSpaceOnUse" color-interpolation-filters="sRGB">
<feFlood flood-opacity="0" result="BackgroundImageFix"/>
<feColorMatrix in="SourceAlpha" type="matrix" values="0 0 0 0 0 0 0 0 0 0 0 0 0 0 0 0 0 0 127 0" result="hardAlpha"/>
<feOffset dy="34.436"/>
<feGaussianBlur stdDeviation="51.654"/>
<feComposite in2="hardAlpha" operator="out"/>
<feColorMatrix type="matrix" values="0 0 0 0 0.439216 0 0 0 0 0.564706 0 0 0 0 0.690196 0 0 0 0.15 0"/>
<feBlend mode="normal" in2="BackgroundImageFix" result="effect1_dropShadow_1203_9160"/>
<feBlend mode="normal" in="SourceGraphic" in2="effect1_dropShadow_1203_9160" result="shape"/>
</filter>
<filter id="filter2_d_1203_9160" x="-8.82362" y="229.866" width="264.694" height="221.716" filterUnits="userSpaceOnUse" color-interpolation-filters="sRGB">
<feFlood flood-opacity="0" result="BackgroundImageFix"/>
<feColorMatrix in="SourceAlpha" type="matrix" values="0 0 0 0 0 0 0 0 0 0 0 0 0 0 0 0 0 0 127 0" result="hardAlpha"/>
<feOffset dy="34.436"/>
<feGaussianBlur stdDeviation="51.654"/>
<feComposite in2="hardAlpha" operator="out"/>
<feColorMatrix type="matrix" values="0 0 0 0 0.439216 0 0 0 0 0.564706 0 0 0 0 0.690196 0 0 0 0.15 0"/>
<feBlend mode="normal" in2="BackgroundImageFix" result="effect1_dropShadow_1203_9160"/>
<feBlend mode="normal" in="SourceGraphic" in2="effect1_dropShadow_1203_9160" result="shape"/>
</filter>
<clipPath id="clip0_1203_9160">
<rect width="292" height="228" fill="white" transform="translate(22 94.8262)"/>
</clipPath>
<clipPath id="clip1_1203_9160">
<rect width="168.196" height="10.6865" fill="white" transform="translate(79.6133 125.199)"/>
</clipPath>
<clipPath id="clip2_1203_9160">
<rect width="13.9389" height="13.9389" fill="white" transform="translate(156.279 270.629)"/>
</clipPath>
</defs>
</svg>
